<?xml version="1.0" encoding="UTF-8"?>
<svg id="Layer_2" data-name="Layer 2" xmlns="http://www.w3.org/2000/svg" viewBox="0 0 148.74 76.91">
  <defs>
    <style>
      .cls-1 {
        fill: #d1d3d4;
      }

      .cls-1, .cls-2 {
        stroke-width: 0px;
      }

      .cls-2 {
        fill: #fff;
      }
    </style>
  </defs>
  <g id="Layer_1-2" data-name="Layer 1" shape-rendering="auto">
    <g>
      <path class="cls-2" d="M68.99.67c30.51,1.97,49.4,0,55.56,0,25.64-3.85,36.5,41.38,4.27,65.15-9.57,7.1-14.27,5.99-34.79,5.99s-42.74,7.7-55.13,4.19C3.77,66.08-2.38,40.6.7,26.58,4.97,7.68,13.69-2.84,69.07.67h-.09Z"/>
      <path class="cls-1" d="M84.72,72.23l-5.13.6L82.41,1.35l5.13.09-2.82,70.79ZM139.42,55.47c-1.28,1.71-2.74,3.42-4.36,5.04L125.66.5c1.71-.17,3.42,0,5.13.26l8.63,54.72h0ZM30.61,1.1l-10.77,66.43c-1.71-1.11-3.25-2.22-4.62-3.42L25.23,2.12c1.71-.43,3.42-.68,5.38-1.03h0Z"/>
    </g>
  </g>
</svg>