<?xml version="1.0" encoding="UTF-8"?>
<svg id="Layer_2" data-name="Layer 2" xmlns="http://www.w3.org/2000/svg" viewBox="0 0 338.18 353.36">
  <defs>
    <style>
      .cls-1 {
        fill: rgba(0, 0, 0, .2);
      }

      .cls-1, .cls-2 {
        stroke-width: 0px;
      }

      .cls-2 {
        fill: #71472d;
      }
    </style>
  </defs>
  <g id="Layer_1-2" data-name="Layer 1" shape-rendering="auto">
    <g>
      <path class="cls-2" d="M197.58.82c75.9,2.06,113.25,56.11,120.52,84.38-47.01-7.45-163.68-29.56-179.49,13.28-35.04,95.09-12.82,208.17,0,254.43-47.18,3.43-105.73-13.45-129.06-22.27-4.7-5.57-1.45,16.28-8.55-89.09C-10.97,63.35,88.18,26.94,120.66,12.38,146.64.73,183.05-1.5,197.58.82ZM338.18,328.49c-2.39-4.45-2.39-20.13-2.14-27.41-14.77,13.76-32.44,24.01-51.71,29.98,16.41,2.06,42.74-.86,53.85-2.57Z"/>
      <path class="cls-1" d="M199.72,43.48c12.14-9.68,22.65-6.51,22.65-6.51-6.32,5.4-13.33,21.16-17.01,30.33l5.21-.34c10.94-10.54,21.03-21.76,21.03-21.76,1.97,4.11.94,14.39,0,21.07h1.97c3.42-8.82,7.69-22.79,7.69-22.79l14.87,5.23s-7.86-10.28-15.98-14.56c0,0,12.91-1.37,16.92,1.88,0,0-11.62-10.79-28.03-14.22,0,0,5.38-5.23,12.82-5.14,0,0-15.9-6.68-30.6-6.25,0,0,5.98-4.8,11.62-5.14,0,0-5.56-1.97-13.16-3.68-3.93-.43-7.95-.69-12.14-.77-4.7-.77-11.71-1.03-19.91-.6-11.37,1.37-30.17,7.28-30.17,7.28,13.93-3.34,29.57,4.8,29.57,4.8-9.32,5.74-10.6,19.1-10.6,19.1,7.95-7.28,25.98-10.28,25.98-10.28-14.19,7.11-23.16,29.81-23.16,29.81,18.63-23.13,42.65-21.76,42.65-21.76-6.32,3.34-12.22,14.31-12.22,14.31h0Z"/>
      <path class="cls-2" d="M208.52,143.88c63.33.86,107.95-8.48,122.4-13.28-2.05-32.72-23.85-96.12-98.29-98.09s-114.02,63.74-123.93,98.09c21.37,11.57,68.72,12.59,90,13.19l6.15-27.67,3.68,27.67v.09Z"/>
      <path class="cls-1" d="M128.35,59.07c-17.09,49.94-43.93,174.76-14.53,274.13-23.68-55.08-53.85-187.1,14.53-274.13ZM55.7,170.44c0-49.34,34.19-103.91,51.28-125.07C17.41,86.48,24.67,196.74,39.46,246.68c-12.99-76.07,8.8-125.33,21.37-140.49-6.84,21.25-6.24,51.66-5.13,64.25ZM259.98,52.22c14.79,7.45,44.79,31.87,46.15,70.25,2.82-21.16-2.39-64.76-46.15-70.25ZM206.13,59.07c-5.13,8.82-15.21,31.53-14.53,51.4-7.72-18.43-1.69-39.76,14.53-51.4Z"/>
    </g>
  </g>
</svg>