<?xml version="1.0" encoding="UTF-8"?>
<svg id="Layer_2" data-name="Layer 2" xmlns="http://www.w3.org/2000/svg" viewBox="0 0 300.09 237.99">
  <defs>
    <style>
      .cls-1 {
        fill: rgba(0, 0, 0, .2);
      }

      .cls-1, .cls-2 {
        stroke-width: 0px;
      }

      .cls-2 {
        fill: #71472d;
      }
    </style>
  </defs>
  <g id="Layer_1-2" data-name="Layer 1" shape-rendering="auto">
    <g>
      <path class="cls-2" d="M300.09,104.15C278.72,15.06,201.37-1.22,169.75.07,29.23,1.78-1.88,115.89.09,177.83c.85-1.71,2.56-3,2.56-3,11.11-6,17.52-4.28,19.66-4.28,37.18,1.71,50.26,45.83,47.86,64.68,6.75,6.34,15.98.17,19.91-2.48l.17-.09c3.08-2.06,0-11.57,0-17.13-7.69-35.98-5.98-87.38-3.85-87.38,1.71,0,25.21-1.97,34.62-3.43-.68-8.91-3.16-34.52,0-38.98-2.74,4.45,8.72,31.53,9.83,36.84,42.31,4.28,128.64-11.14,131.2-12.42,2.05-1.03-.85-23.82-2.56-35.12,6.5,6.17,11.8,27.16,12.82,35.12,8.21-.69,21.97-4.28,27.78-6Z"/>
      <path class="cls-1" d="M180.43,13.77c19.91,1.46,66.16,13.88,91.46,52.26-10-20.82-42.22-60.48-91.46-52.26ZM221.46,54.89c5.98,7.71,18.12,28.78,18.8,51.4,4.27-9.17,6.5-32.21-18.8-51.4ZM51.37,126.86c4.1-45.92,34.19-79.67,48.72-90.81-54.7,17.82-66.67,76.5-65.81,103.66.68-34.27,20.26-63.39,29.92-73.67-8.89,15.76-12.22,47.12-12.82,60.82Z"/>
    </g>
  </g>
</svg>