<?xml version="1.0" encoding="UTF-8"?>
<svg id="Layer_2" data-name="Layer 2" xmlns="http://www.w3.org/2000/svg" viewBox="0 0 173.59 106.75">
  <defs>
    <style>
      .cls-1 {
        fill: #c4c4c4;
      }

      .cls-1, .cls-2, .cls-3, .cls-4, .cls-5 {
        stroke-width: 0px;
      }

      .cls-2 {
        fill: #ee7e8b;
      }

      .cls-3 {
        fill: #873c41;
      }

      .cls-4 {
        fill: #a09e9e;
      }

      .cls-5 {
        fill: #fff;
      }
    </style>
  </defs>
  <g id="Layer_1-2" data-name="Layer 1" shape-rendering="auto">
    <g>
      <path class="cls-3" d="M125.88,28.33c2.56,1.45,20.6-21.2,32.65-14.28,4.02,2.31,7.09,6.24,9.4,10.52,5.13,9.41,6.84,20.86,4.87,31.46-3.37,14.52-12.26,27.16-24.79,35.23-31.97,21.8-57.27,17.7-91.28,5.13C29.89,86.39-6.52,65.95,1,29.1c13.33-64.98,124.87-.86,124.87-.86v.09Z"/>
      <path class="cls-5" d="M33.57,24.06c8.72,5.47,19.23,5.99,28.72,3.85,1.79-.43,3.25,1.11,3.68,2.91,4.62,17.96,30.77,27.36,44.02,15.82,1.03-.86,2.82-1.11,3.85-.09,7.09,6.67,18.46,8.55,26.84,3.93,11.8-6.41,11.71-24.45,8.55-37.02-10.43,3.16-21.37,15.99-23.33,14.79,0,0-68.46-39.33-104.53-25.14.43,8.58,4.98,16.42,12.22,21.03v-.09Z"/>
      <path class="cls-2" d="M131.86,94c-18.8-17.19-41.8-26.85-65.13-33.6-20-5.9-42.48-9.66-62.74-3.85,9.4,20.09,33.51,32.66,52.74,39.84,29.74,11.03,52.82,15.56,79.49,1.88-1.45-1.45-2.82-2.91-4.36-4.28h0Z"/>
      <path class="cls-1" d="M28.7.97l5.98,3.42c3.99,2.1,8.01,4.16,12.05,6.16,13.16,6.58,33.51,13.59,44.1,17.19l1.88.68c12.39,4.28,27.52,8.89,44.02,8.89,4.46-.13,8.81-1.4,12.65-3.68.67-.22,1.4.15,1.62.82.17.51,0,1.07-.42,1.4-4.2,2.49-8.97,3.87-13.85,4.02-16.92,0-32.48-4.79-44.87-9.06l-1.88-.6c-15.44-5.09-30.56-11.09-45.3-17.96h-.09c-3.25-1.54-7.35-3.59-11.11-5.64-3.16-1.71-5.98-3.33-8.29-4.79l3.5-.86h0Z"/>
      <path class="cls-4" d="M132.76,32.89h6.84c.94,0,1.71.77,1.71,1.71v6.84c0,.94-.77,1.71-1.71,1.71h-6.84c-.94,0-1.71-.77-1.71-1.71v-6.84c0-.94.77-1.71,1.71-1.71Z" transform="translate(90.62 171.86) rotate(-86.8)"/>
      <path class="cls-4" d="M88.3,24.36h6.84c.94,0,1.71.77,1.71,1.71v6.84c0,.94-.77,1.71-1.71,1.71h-6.84c-.94,0-1.71-.77-1.71-1.71v-6.84c0-.94.77-1.71,1.71-1.71Z" transform="translate(39.5 110.45) rotate(-75)"/>
      <path class="cls-4" d="M42.72,7h6.84c.94,0,1.71.77,1.71,1.71v6.84c0,.94-.77,1.71-1.71,1.71h-6.84c-.94,0-1.71-.77-1.71-1.71v-6.84c0-.94.77-1.71,1.71-1.71Z" transform="translate(14.76 48.06) rotate(-63.59)"/>
    </g>
  </g>
</svg>