<?xml version="1.0" encoding="UTF-8"?>
<svg id="Layer_2" data-name="Layer 2" xmlns="http://www.w3.org/2000/svg" viewBox="0 0 356.25 377.83">
  <defs>
    <style>
      .cls-1 {
        fill: #220f01;
      }

      .cls-1, .cls-2, .cls-3 {
        stroke-width: 0px;
      }

      .cls-2 {
        fill: rgba(0, 0, 0, .5);
      }

      .cls-3 {
        fill: #71472d;
        fill-rule: evenodd;
      }
    </style>
  </defs>
  <g id="Layer_1-2" data-name="Layer 1" shape-rendering="auto">
    <g>
      <path class="cls-1" d="M108.32,200.46c86.33-28.27,149.15-107.51,176.93-146.06,11.97,28.78,44.27,49.69,58.98,56.54-6.84-32.55-24.79-65.11-60.69-89.52C254.82,1.88,211.57.17,194.65,2.14,1.48,20.56,8.32,238.58,27.38,328.53c23.93,17.13,84.62,50.2,136.33,45.4-6.5-16.45-1.71-52.43,1.03-66.82-10.6-4.11-40.86-29.38-50.43-36.84-14.1,6-19.66,6-37.18,2.57-63.25-29.13-35.9-74.96-35.9-74.96,0,0,8.55-17.13,32.05-17.56,18.8-.34,29.23,10.11,35.04,20.13ZM355.76,361.08c-5.81-8.22-2.39-45.57,0-58.25-23.93,20.13-38.04,29.98-87.18,31.27,15.81,9,55.39,26.99,87.18,26.99Z"/>
      <path class="cls-3" d="M205.5,10.71c-15.38,16.62-41.88,42.83-72.14,67.68-29.49,24.07-63.33,47.63-94.02,59.11-1.2,1.2-3.42,4.2-6.07,10.62-4.24,11.35-7.11,23.17-8.55,35.21-4.62,32.3-5.98,63.22,2.82,137.5.68,5.91-3.85,9.25-10.68,7.71-5.56-1.29-9.15-6.08-9.83-11.99C-1.94,241.15-1.42,215.02,3.53,180.33c2.48-17.39,5.98-30.58,10-40.35,3.76-9.42,8.55-16.88,14.53-20.82l1.03-.69,1.28-.51c27.61-9.94,59.83-31.95,89.49-56.2,25.64-20.99,48.46-43,63.68-58.94,1.45-1.54,11.97-4.54,24.53-1.54.68,3.26-.17,6.85-2.56,9.42h0ZM160.8,10.96c-21.03,21.16-68.98,67.68-116.41,87.98-2.05.86,10.68-1.46-1.88.86,2.98-11.89,8.49-23,16.15-32.55,26.75-15.42,46.75-34.52,66.67-52.26,7.35-3.26,25.3-9.68,38.21-9-.43,1.8-1.37,3.51-2.74,4.97h0ZM63.28,163.02C159.86,111.36,228.41,36.83,248.07,5.99c-6.5-5.48-18.38-5.31-23.5-4.03-17.52,27.41-78.29,92.86-173.34,143.15l-.6.34-.6.43c-2.63,2.04-4.69,4.73-5.98,7.8-1.28,2.74-2.39,6-3.42,9.77-1.97,7.71-3.68,18.5-4.96,33.24-2.56,29.47-3.76,65.11,0,134.84.34,5.91,7.27,10.71,10.68,11.99h.09c1.71,0,9.74,0,10.6-4.28-1.71-32.21-2.05-57.65-2.14-80.1l-1.71-1.71c-4.87-4.11-17.09-14.82-17.52-38.12,2.14-18.16,6.84-23.9,8.72-26.04l.68-.94c8.55-8.57,13.59-9,13.59-9,.85-6.17,1.71-10.97,2.74-14.56.68-2.74,1.37-4.63,1.88-5.74h0ZM91.48,318.59c.17,6.25.17,11.39.17,15.93.09,9.34.17,15.85.85,23.56.51,5.91-5.98,6-9.4,6-4.27-.86-10.6-3.94-11.11-9.85v-.6l-.17-1.2c-.94-10.54-1.37-14.65-1.71-33.41-.54-16.27.12-32.57,1.97-48.74,2.91,1.71,11.11,4.71,20.86,4.71-1.45,11.57-1.71,27.58-1.45,43.69v-.09ZM76.01,168.33C170.89,118.05,240.29,36.58,257.9,8.99c5.3.69,16.92,3.51,21.37,9.42-19.74,30.93-90.6,113.08-188.47,164.91-.68.34-2.31-.26-4.27-.94-1.71-.6-3.68-1.29-5.56-1.63-3.42-.6-9.4-.43-9.4-.43-2.74-5.23-.85-9.25,4.44-11.99ZM286.36,60.91c-24.96,34.35-90,105.28-172.91,139.12-4.7,2.48-4.96,1.97-6.84-1.97l-.85-1.46c-.93-1.61-2.11-3.06-3.5-4.28-1.97-1.97-3.08-3,.26-4.8,94.62-50.03,154.7-120.11,172.48-147.86,1.45-2.4,3.76-3.94,6.32-4.63,4.74-2.97,10.96-1.77,14.27,2.74,11.36,15.12,24.25,29.01,38.46,41.46,3.76,8.65,11.37,27.41,11.37,32.9-14.58-6.35-27.87-15.32-39.23-26.47-4.87-4.88-9.49-11.14-13.68-16.79-2.22-3-4.27-5.83-6.15-8.05v.09ZM123.37,317.65c-.25-13.23,0-26.46.77-39.66l-9.83-7.71c-3.74,1.57-7.6,2.86-11.54,3.86l-.34,6.17v3.77c-1.02,27.2-.33,54.44,2.05,81.55v1.46c.43,5.91,11.11,8.57,11.11,8.57,0,0,9.4-.43,9.83-3.43-1.2-15.42-1.62-31.27-2.05-54.66v.09ZM137.04,317.99l.26,20.56c0,11.74.09,20.56.94,31.1.43,5.91,6.5,8.57,12.39,8.14s9.83-1.37,9.4-7.28c-3.85-18.59-3.59-24.84-2.91-41.81l.34-8.74c0-2.48.17-5.65.43-8.82.26-2.74.43-5.4.43-7.45-2.99-1.71-15.38-10.71-21.37-15.42-.22,9.19-.22,18.39,0,27.58l.09,2.14h0ZM348.16,309.25c4.44-3.68,8.21-7.37,8.03-6.43l-.51,3.34c-1.03,7.2-2.56,18.16-2.91,27.67-.34,8.93.81,17.84,3.42,26.39.77,2.14-5.98,1.71-11.54,1.71-5.98,0-11.54-2.14-11.97-3.43-3.08-9.08-1.62-13.71-1.28-25.27l.68-12.85s8.72-5.14,15.98-11.14h.09ZM326.28,323.39c0-.43-4.27,2.14-11.54,4.28-7.69,2.57-11.97,3-11.97,3,0,4.88-.17,2.57-.6,10.71v9c2.82,5.14,5.3,4.8,11.28,6,5.98.6,11.11,1.29,10.68-2.14s-.94-4.63-.6-11.74c.34-6.51,2.74-15.08,2.74-19.1Z"/>
      <path class="cls-2" d="M135.84,10.96l-5.98,2.14c.09,1.46.26,2.83.6,4.2l-7.18-.51-3.25,2.91-2.82,2.57c7.43.93,14.91,1.31,22.39,1.11h8.63c1.8-1.76,3.6-3.53,5.38-5.31l-.51-1.63c-2.73.75-5.55,1.1-8.38,1.03h-5.04l-3.08-.09c-.51-1.88-.85-4.03-.77-6.43ZM119.26,49.51l-.17-.43c-2.7.71-5.5,1.03-8.29.94h-8.12c-.97-3.9-1.09-7.96-.34-11.91l.6-3.43-6.84,5.83c-.34,3.08-.26,6.34.34,9.42-3.68-.17-7.69-.51-11.11-.86l-7.01,5.14c9.06,1.31,18.2,1.89,27.35,1.71l5.13.09h.51c2.74-2.14,5.38-4.28,7.95-6.51h0ZM83.54,76.67c-1.71.51-4.02.77-6.58.86l-5.13.26-3.08.09c-1.14-3.36-1.49-6.93-1.03-10.45.26-2.57.77-4.88,1.28-6.85l-7.01,4.28-.17,1.97c-.34,3.6-.34,7.71.68,11.39-3.68,0-7.95,0-11.8-.17-1.1,1.93-2.12,3.9-3.08,5.91,8.14.41,16.31.35,24.44-.17h.68l10.77-7.11ZM70.12,97.83c2.91-1.71,5.81-3.6,8.72-5.57-1.64,3.05-2.84,6.3-3.59,9.68-.84,3.19-.9,6.54-.17,9.77l3.16.34,5.13.34,3.59.17-8.72,5.48h-.51c-1.71-.26-3.42-.34-4.96-.43-7.09-.51-20.94-3.51-27.61-4.97l-1.28-.34c2.82-1.29,5.73-2.74,8.55-4.28,5.21,1.11,11.45,2.4,16.41,3.08-.6-4.47-.16-9.01,1.28-13.28h0ZM17.47,131.67c1.37-2.4,2.74-4.63,4.27-6.6.6,2.4,1.54,5.31,2.82,8.31,1.71,3.68,3.85,6.85,6.15,8.57l2.56-1.71h.09l4.27-2.66c2.39-1.47,4.58-3.26,6.5-5.31l2.65,2.23-7.52,3c-2.42,2.88-4.33,6.15-5.64,9.68l-1.28.86c-8.21,4.89-16.69,9.32-25.39,13.28l1.88-7.54c5.13-2.48,11.8-5.74,16.58-8.57-2.74-2.57-4.79-6-6.24-9.42-.68-1.37-1.2-2.74-1.71-4.11ZM.97,202.6l.85-8.74c1.28,2.06,3.68,5.14,6.67,8.05,2.52,2.53,5.59,4.43,8.97,5.57l1.71-2.57h.09c1.16-1.58,2.3-3.18,3.42-4.8-.43,3.77-.77,7.71-1.03,11.74l-.34.6c-6.32,8.35-13.08,16.36-20.26,23.99l-.85-.86c-.17-2.4-.17-4.71-.17-6.85,3.93-4.37,9.83-11.14,13.76-16.19-3.42-1.37-6.75-3.86-9.4-6.25-1.2-1.14-2.34-2.34-3.42-3.6v-.09ZM1.57,263.08l-.6-8.82,2.39,2.48c2.52,2.53,5.59,4.43,8.97,5.57l1.71-2.57h.09l2.91-4.11c1.67-2.29,3.02-4.8,4.02-7.45l.34.09c0,3.43.26,7.11.43,10.88l-2.82,4.11-2.82,4.03c-2.74,4.11-8.21,10.45-12.82,15.76l-.85-8.22c2.22-2.57,4.44-5.14,6.15-7.45-2.56-1.03-4.96-2.57-7.09-4.28ZM6.95,315.94l-1.03-8.65.85.86c2.52,2.53,5.59,4.43,8.97,5.57l1.71-2.57h.09l2.91-4.11c1.67-2.29,3.02-4.8,4.02-7.45l.77.26.94,9.34-.77,1.2-2.99,4.28-2.82,4.03c-1.54,2.23-3.85,5.23-6.41,8.31-1.71-1.11-3.16-2.57-4.19-4.37l3.08-3.86c-1.71-.69-3.5-1.71-5.13-2.83ZM38.23,337.52l5.47-6.77c-3.08-1.2-5.98-3.26-8.38-5.4l-.43-9c1.03,1.2,2.22,2.57,3.5,3.77,2.52,2.53,5.59,4.43,8.97,5.57l1.71-2.57h.09l2.91-4.11c1.71-2.57,2.99-4.71,3.76-6.68l.43,11.14-2.22,3.17-2.82,4.03c-1.97,2.91-5.13,6.85-8.55,10.88-1.67-1.12-3.16-2.48-4.44-4.03h0ZM70.8,339.92c-.17-3.08-.34-6.51-.43-11.14,1.11,2.14,3.25,5.31,5.81,8.14,2.29,2.74,5.19,4.91,8.46,6.34l1.97-2.31c1.75-2.05,3.46-4.13,5.13-6.25v9.42l-.51.6c-1.11,1.37-2.22,2.57-3.16,3.86-2.31,2.91-7.18,7.71-12.14,12.25-1.67-1.22-2.93-2.92-3.59-4.88,3.08-2.83,5.98-5.65,8.12-7.88-3.73-2.04-7.01-4.81-9.66-8.14h0ZM103.96,360.4c3.33-2.83,6.58-5.74,8.97-8.22-3.8-1.83-7.19-4.39-10-7.54l-.6-10.11c1.37,2.06,3.42,4.54,5.73,6.85,2.4,2.65,5.39,4.7,8.72,6l1.88-2.57c1.76-2.3,3.47-4.64,5.13-7.02,0,3.43.09,6.77.26,9.94l-.6.69-2.91,4.03c-4.7,5.78-10.1,10.96-16.07,15.42l-.09-.77-.09-1.46-.43-5.14.09-.09ZM123.45,290.84l-.17,10.28c-.85,1.2-1.71,2.23-2.39,3.34-2.56,3.6-8.03,8.57-12.99,12.76-1.7,1.44-3.41,2.86-5.13,4.28l-.68.6c-.04-2.57-.06-5.14-.09-7.71l2.05-1.71c3.42-2.91,6.75-6,9.15-8.48-4.35-2.06-8.17-5.08-11.2-8.82,0-3.34.17-6.51.26-9.59,1.28,2.06,3.5,5.05,6.15,7.71,2.45,2.6,5.46,4.59,8.8,5.83l1.88-2.57c1.49-1.97,2.95-3.97,4.36-6v.09ZM71.06,279.7c1.11,2.14,3.25,5.4,5.98,8.4,2.29,2.74,5.19,4.91,8.46,6.34l1.97-2.31,3.25-3.94,1.2-1.54-.34,9.94-2.65,3.17c-5.8,6.57-12.09,12.7-18.8,18.33l-.09-8.05h.09c4.19-3.86,8.29-7.8,11.28-10.79-4.38-2.32-8.15-5.64-11.03-9.68l.68-9.94v.09ZM54.73,258.97l.17.17v10.54l-.85,1.29-2.82,4.03c-5.35,7.16-11.08,14.03-17.18,20.56l-.26-8.57c3.42-3.86,7.09-8.31,9.91-11.91-3.9-1.71-7.42-4.19-10.34-7.28l-.09-9.17c1.54,2.09,3.26,4.03,5.13,5.83,2.52,2.53,5.59,4.43,8.97,5.57l1.71-2.57h.09c1.93-2.81,3.78-5.66,5.56-8.57v.09ZM112,171.42l-3.93.17c-1.79,0-3.42.17-5.04.26-4.27.26-12.82-.34-20.68-1.03l-8.97-.86c.8-.66,1.65-1.23,2.56-1.71l6.5-3.43h.43c5.64.51,11.28.94,15.47,1.03-.85-3.08-1.03-6.6-.85-9.77l6.5-3.94-.34,3.08c-.48,3.54-.12,7.15,1.03,10.54l3.08-.17,5.13-.26c3.33-.17,6.15-.6,8.29-1.37l.51,1.54-9.66,5.91h0ZM149.18,159.59l6.58-4.45c-.45,2.4-.71,4.84-.77,7.28,0,4.03.51,7.71,1.71,10.45l3.16-.34,5.13-.6,2.99-.51-12.48,7.71c-4.27.51-12.82.51-20.51.43-4.5-.08-9-.19-13.5-.34l-3.68-.09c3.27-1.88,6.52-3.79,9.74-5.74,7.66.11,15.33.11,22.99,0-1.44-4.41-1.91-9.09-1.37-13.71v-.09ZM204.56,145.03l-1.45.17-4.96.51c-4.27.51-10.94.6-17.01.43-4.19,0-8.21-.17-11.11-.34h-1.2l7.61-5.74c5.56.11,11.11.11,16.67,0-1.23-3.93-1.7-8.06-1.37-12.16l6.67-5.57c-.4,2.26-.63,4.55-.68,6.85-.17,3.94.34,7.71,1.62,10.28l3.08-.26,5.13-.51c2.22-.26,4.27-.69,5.98-1.11-2.91,2.57-5.98,4.97-8.97,7.45h0ZM253.62,99.8l-7.61,7.71-4.19.6-4.87.6c-7.18,1.11-19.06,1.71-25.04,1.71l6.67-6.17c4.27-.17,9.15-.51,13.25-.94-1.15-3.3-1.73-6.78-1.71-10.28l6.41-6.51-.43,5.65c0,4.03.51,7.71,1.88,10.28,1.03,0,2.05-.17,3.16-.34l5.04-.6c2.91-.43,5.47-.94,7.35-1.71h.09ZM280.46,68.7l-5.3,6.6-3.08.17-4.96.43c-6.67.6-15.38.43-20.86.17l5.13-5.83h11.11c-1.06-3.85-1.46-7.84-1.2-11.82,2.74-3.43,5.21-6.77,7.44-9.77-.76,3.06-1.24,6.19-1.45,9.34-.26,4.45,0,8.65,1.37,11.74l2.99-.17,5.13-.43,3.68-.43h0ZM297.3,75.3l-4.19-5.65c3.16-.43,7.52-.6,11.97-.26,4.02.34,8.55,1.11,12.31,2.91l1.2-7.54c1.71,1.8,3.45,3.57,5.21,5.31-.6,4.22-1.46,8.39-2.56,12.51l-1.11,5.14c-.68,2.66-1.45,5.48-2.56,7.88-1.71-1.29-3.33-2.57-4.87-3.94.6-1.54,1.11-3.43,1.62-5.4l1.11-4.97.6-3c-2.82-1.71-6.92-2.57-11.37-2.91-2.56-.26-5.13-.26-7.35-.09h0ZM343.97,111.45c-5.13-2.31-10.17-4.97-15.04-7.97l1.71.26,5.13.69,3.08.34c1.2-2.31,1.79-5.57,1.88-9.08,2.48,6.51,4.53,12.85,4.7,15.93l-1.45-.17ZM166.1,134.49l-8.97,6.77-4.36.17c-1.71,0-3.42,0-4.96.17-4.27.17-11.03-.26-17.09-.86-2.82-.17-5.73-.51-8.12-.77l7.52-5.23c4.32.37,8.66.66,12.99.86-.85-3.17-.85-6.68-.68-9.85l6.84-5.14c-.35,1.41-.64,2.84-.85,4.28-.49,3.57-.14,7.21,1.03,10.62l3.08-.09,5.13-.26c3.33-.17,6.15-.51,8.29-1.2l.17.51h0ZM207.21,99.8l-7.78,7.02h-.17l-5.21.26-4.96.34c-6.67.51-17.35.34-23.68,0l6.84-5.74h12.05c-.85-3.17-1.11-6.68-.85-9.85,2.27-2.07,4.52-4.15,6.75-6.25l-.85,5.14c-.26,4.11,0,7.88,1.2,10.54,1.03,0,2.14,0,3.16-.17l5.13-.26c3.25-.26,6.15-.69,8.21-1.46l.17.34v.09ZM236.96,70.33c-2.03,2.16-4.09,4.3-6.15,6.43h-9.32c-6.94.04-13.88-.36-20.77-1.2l5.47-5.48c3.42.34,7.44.6,11.11.69-.85-3.77-.85-7.88-.43-11.74,2.65-2.8,5.27-5.63,7.86-8.48-.68,2.4-1.37,5.31-1.79,8.4-.6,4.45-.6,8.65.51,11.82h8.12c1.97,0,3.76-.17,5.38-.43h0ZM268.5,33.58l-5.13,6.6h-11.45c-5.38.26-12.14-.26-17.35-.86l4.7-5.57c2.74.26,5.56.43,8.29.51-.68-3.34-.77-6.85-.43-10.28,3.42-4.45,6.32-8.48,8.55-11.82-.85,2.57-1.88,6.25-2.39,10.28-.6,4.37-.51,8.57.51,11.82h8.12c2.48-.09,4.62-.26,6.5-.69h.09ZM220.03,8.48c-.68,2.31-1.45,5.14-1.88,8.22-.68,4.45-.68,8.65.34,11.82h2.99c3.25.06,6.5.03,9.74-.09-1.71,1.97-3.42,4.11-5.3,6.17h-9.4c-5.38,0-11.97-.6-17.27-1.2l4.96-5.48,8.03.6c-.6-3.08-.68-6.34-.43-9.42,3.16-3.86,5.98-7.45,8.21-10.62h0ZM182.6,3.85c-.43,1.63-.85,3.34-1.03,5.14-.68,4.37-.68,8.57.26,11.82h8.21c2.31,0,4.44,0,6.24-.43l-6.32,6.51h-5.13l-4.96-.09c-5.98,0-13.59-.69-19.06-1.37l5.64-5.4c2.99.34,6.15.6,9.23.69-.68-3-.68-6.25-.43-9.42l7.35-7.45h0ZM141.31,43.34l7.18-6.43c-.35,1.53-.64,3.07-.85,4.63-.68,4.45-.77,8.74.26,11.82h3.08c1.71.09,3.42.17,5.13.09,2.48,0,4.7-.17,6.58-.51l-7.35,6.6-4.53-.09h-4.87c-6.84,0-15.81-.86-21.37-1.71l6.32-5.23c3.42.34,7.27.69,10.85.86-.64-3.3-.79-6.68-.43-10.02h0ZM106.87,72.04l6.67-5.23-.6,4.03c-.48,3.54-.12,7.15,1.03,10.54l3.16-.17,5.13-.17c3.25-.26,6.15-.6,8.21-1.37l.26.86-8.21,6.51-5.13.17c-1.71,0-3.42.17-4.96.26-7.52.43-20.17,0-25.9-.43l7.86-5.57c4.27.17,9.15.26,13.33.17-.85-3.08-1.03-6.43-.85-9.59ZM181.32,51.65l8.12-7.97c-1.01,2.98-1.75,6.05-2.22,9.17-.68,4.37-.68,8.57.34,11.82h2.99c2.22.04,4.44.04,6.67,0l-6.24,6h-5.38c-7.69,0-17.78-1.11-22.99-1.88l5.98-5.23c3.85.43,8.55.86,12.82,1.03-.85-4.11-.68-8.57-.09-12.68v-.26h0ZM147.64,81.47l7.44-6.25c-.77,2.31-1.45,5.57-1.79,9-.5,3.54-.18,7.14.94,10.54l3.16-.17c2.37-.07,4.73-.18,7.09-.34l-7.78,6.43c-1.37,0-2.74,0-4.02.17-8.29.51-22.82-.09-27.35-.51l.09-1.71,5.3-3.94c4.87.26,11.71.43,17.35.34-1.14-4.42-1.32-9.04-.51-13.54h.09ZM106.87,111.62l7.44-5.14.43.26c-1.49,3.56-2.47,7.31-2.91,11.14-.52,3.5-.22,7.08.85,10.45h3.08l4.27-.09-9.15,6.17c-4.27.17-10.94-.34-16.92-.94l-11.03-1.29-2.82-.34.34-3.26,3.76-2.31c7.39.86,14.8,1.57,22.22,2.14-1.03-3.68-.85-7.71-.51-11.31.17-1.88.51-3.68.94-5.48h0ZM62,139.29l6.15-3.43,1.11.43c-.94,2.14-2.22,6.51-2.74,11.14-.53,3.53-.24,7.14.85,10.54h3.16l2.14-.17-9.4,5.14-.51,1.2c-6.32,0-15.56-.69-21.97-1.29l1.79-5.83c5.73.43,13.08,1.03,18.55,1.11-.85-3.68-.85-7.71-.51-11.31.27-2.54.73-5.06,1.37-7.54h0ZM36.87,185.21c2.24,2.9,4.82,5.52,7.69,7.8l-.17.26c-.68.86-1.88,2.23-3.16,4.71-1.87-1.39-3.61-2.94-5.21-4.63,0,0,.85-8.14.85-8.14ZM33.88,224.87l.34-8.31,2.14-2.4c-.27,1.71-.5,3.42-.68,5.14l.17,4.28-1.45,1.71-.51-.51v.09ZM26.7,313.71l.26,2.06-.94-1.71.68-.34ZM137.04,313.62v4.37l.09,5.31,1.03.94c2.48,2.57,5.56,4.97,8.97,6.51-2.56,2.57-5.81,5.57-9.23,8.48l-.6.51v7.71l4.53-3.68c5.76-4.69,10.93-10.07,15.38-16.02.13-3.54.24-7.08.34-10.62-1.41,2.18-2.95,4.26-4.62,6.25l-1.88,2.57c-3.33-1.3-6.31-3.35-8.72-6-1.96-1.95-3.73-4.07-5.3-6.34h0ZM335.34,318.42c2.02,3.15,4.13,6.23,6.32,9.25l1.88,2.57c3.92-1.45,7.38-3.93,10-7.2l-.68,8.74c-1.71,1.29-3.42,2.4-5.3,3.26,1.45,1.54,3.33,3.26,5.3,5.05.09,3.08.34,6,.77,8.57l-.85-.6c-5.99-4.89-11.33-10.54-15.9-16.79l-3.08-4.2-1.97-2.83.26-3.86,3.25-1.97ZM325.85,327.42l-.77,4.11c-.51,2.74-1.03,5.65-1.37,8.48l-.51.51c-2.56,2.57-5.64,4.97-8.97,6.51,2.48,2.57,5.73,5.57,9.15,8.48.17,0,.26.17.43.34-1.11,1.29-4.27,1.11-8.21.86-4.57-3.92-8.6-8.45-11.97-13.45l-1.45-1.71v-.17l.43-6.25c.09-1.03.17-1.63.17-3.43,1.6,2.82,3.46,5.49,5.56,7.97l1.88,2.57c3.36-1.28,6.38-3.34,8.8-6,3.25-3.17,5.73-6.85,6.84-8.82Z"/>
    </g>
  </g>
</svg>