<?xml version="1.0" encoding="UTF-8"?>
<svg id="Layer_2" data-name="Layer 2" xmlns="http://www.w3.org/2000/svg" viewBox="0 0 339.03 292.98">
  <defs>
    <style>
      .cls-1 {
        fill: rgba(0, 0, 0, .2);
      }

      .cls-1, .cls-2, .cls-3 {
        stroke-width: 0px;
      }

      .cls-2 {
        fill: #000;
        isolation: isolate;
        opacity: .1;
      }

      .cls-3 {
        fill: #71472d;
      }
    </style>
  </defs>
  <g id="Layer_1-2" data-name="Layer 1" shape-rendering="auto">
    <g>
      <path class="cls-3" d="M127.66,147.18c-37.35,0-67.61-32.9-67.61-73.59S90.3,0,127.57,0s67.61,32.98,67.61,73.67-30.26,73.5-67.52,73.5h0Z"/>
      <path class="cls-1" d="M127.66,147.18c-37.35,0-67.61-32.9-67.61-73.59,0-6.85.85-13.36,2.39-19.62,10.85,8.14,52.14,19.53,130.34,0,1.61,6.44,2.42,13.06,2.39,19.7,0,40.61-30.26,73.5-67.52,73.5h0Z"/>
      <path class="cls-3" d="M91.5,267.28c3.93-39.75,67.52-73.16,67.52-73.16-1.44,6.16-3.9,12.04-7.27,17.39-1.28,2.06,0,4.71,2.22,4.88,59.83,4.71,136.93-60.05,136.93-60.05,16.24,20.99,35.04,50.12,44.62,59.88,1.37,1.37,3.59.26,3.5-1.8-3.59-137.32-135.56-164.57-224.96-134.41C32.27,107.68-35.85,214.77,20.9,292.98c3.16-10.02,15.13-29.38,37.61-26.99,3.76.86,13.68,5.14,23.59,15.42,1.45,1.63,13.68,6,9.4-14.14Z"/>
      <path class="cls-2" d="M278.68,140.58s-7.09-8.4-22.48-7.02c0,0,10.85-6,17.95-5.14,0,0-19.32-14.39-47.52-5.31,0,0,19.91-14.05,35.64-12.25,0,0-16.75-7.37-27.35-5.65,0,0,8.38-10.45,19.32-10.11,0,0-8.72-15.42-22.22-20.3,0,0,27.01,7.71,34.19,13.28,15.64,6.68,30.17,26.3,30.17,26.3-4.87-2.83-12.56-2.14-12.56-2.14,12.56,7.71,22.22,22.1,22.22,22.1-6.15-4.28-13.5-2.83-13.5-2.83,7.38,7.69,12.78,17.07,15.73,27.33-1.62-4.97-13.16-10.88-13.16-10.88,3.05,6.62,4.9,13.72,5.47,20.99l-9.66-12.59s-19.66,16.45-24.79,18.59c0,0,14.79-15.42,15.73-22.44,0,0-22.22,6-39.83,8.4,0,0,24.79-18.85,36.67-20.3Z"/>
    </g>
  </g>
</svg>