<?xml version="1.0" encoding="UTF-8"?>
<svg id="Layer_2" data-name="Layer 2" xmlns="http://www.w3.org/2000/svg" viewBox="0 0 184.81 89.94">
  <defs>
    <style>
      .cls-1 {
        fill: #c4c4c4;
      }

      .cls-1, .cls-2, .cls-3, .cls-4 {
        stroke-width: 0px;
      }

      .cls-2 {
        fill: #a09b9b;
      }

      .cls-3 {
        fill: #feb3a4;
      }

      .cls-4 {
        fill: #ffe7e2;
      }
    </style>
  </defs>
  <g id="Layer_1-2" data-name="Layer 1" shape-rendering="auto">
    <g>
      <path class="cls-2" d="M6.27,4.19c9.57-14.65,47.69,12.59,66.07,28.27-24.96-1.54-38.63,31.95-43.08,48.32-7.86,7.71-20.94,9.17-26.24,9.17C.12,67.41-3.22,18.84,6.27,4.19h0Z"/>
      <path class="cls-1" d="M.54,62.87l-.26-6,9.91,3.43-9.66,2.57ZM1.31,73.75l1.2,11.99c6.24-2.31,13.5-4.63,16.58-5.65l-17.78-6.34h0Z"/>
      <path class="cls-3" d="M72.34,32.55c-24.36,8.31-38.89,35.29-43.08,47.72C10.2,56.36.54,14.64,10.46,3.93c7.95-8.57,44.53,15.42,61.88,28.53v.09Z"/>
      <path class="cls-4" d="M29.78,78.81c4.79-12.85,19.06-38.29,42.57-46.26l-5.13-3.77c-6.41-2.23-15.3-4.28-25.64-4.37-17.35-.34-15.38,34.7-11.8,54.48v-.09Z"/>
      <path class="cls-2" d="M173.45,47.88c4.44,1.71,8.38,4.54,11.11,9.17.85-16.62,0-49.09-11.37-49.43-6.84-.26-18.21,6.6-28.46,14.31,10.72,7.28,20.39,16.02,28.72,25.96h0Z"/>
      <path class="cls-3" d="M184.74,63.21c0-15.42-2.22-51.66-9.74-53.28-5.98-1.29-15.38,6.51-22.74,17.48,11.97,9.34,23.33,21.42,32.48,35.81Z"/>
      <path class="cls-4" d="M184.74,63.21c0-3.6-.17-8.14-.51-13.11-1.71-3.94-3.93-8.4-6.84-13.02-3.93-6.08-10.17-5.57-16.5-2.4,9.15,8.43,17.16,18.02,23.85,28.53Z"/>
    </g>
  </g>
</svg>