<?xml version="1.0" encoding="UTF-8"?>
<svg id="Layer_2" data-name="Layer 2" xmlns="http://www.w3.org/2000/svg" viewBox="0 0 340.06 279">
  <defs>
    <style>
      .cls-1 {
        fill: #71472d;
        stroke-width: 0px;
      }
    </style>
  </defs>
  <g id="Layer_1-2" data-name="Layer 1" shape-rendering="auto">
    <path class="cls-1" d="M273.3,142.21c8.12,8.26,19.5,12.44,31.03,11.39,4.27,14.82,7.27,31.7,8.21,51.31,19.15-8.65,27.68-31.23,19.04-50.42-1.58-3.51-3.68-6.75-6.22-9.63,9.34-7.79,14.73-19.35,14.7-31.53.18-19.28-13.29-35.98-32.14-39.84,3.21-24.1-13.68-46.26-37.73-49.47-1.74-.23-3.5-.36-5.26-.38-6.5,0-12.65,1.46-18.21,4.11C240.32,11.17,224.47.17,206.72,0c-15.04,0-28.21,7.88-35.98,19.87-7.56-5.85-16.86-9.02-26.41-9-17.95,0-33.33,11.05-40.09,26.73-5.38-2.57-11.45-3.94-17.78-3.94-23.92.33-43.16,19.8-43.25,43.78C18.59,79.79.53,101.71,2.88,126.39c.88,9.26,4.61,18.03,10.68,25.07-17.71,17.24-18.12,45.61-.92,63.36,8.16,8.42,19.29,13.29,31,13.57,1.62,0,3.16,0,4.79-.26,20.6,12.42,31.03,37.35,33.93,50.8,0,0,9.66.51,11.97-1.29,9.4-4.97,24.79-22.19,25.47-55.26,12.13-11.82,16.56-29.49,11.45-45.66,13.32-3.81,24.09-13.68,29.06-26.64,18.54,8.38,40.4,2.59,52.39-13.88,12.24,18.15,36.84,22.91,54.95,10.64,2.02-1.37,3.91-2.93,5.65-4.65Z"/>
  </g>
</svg>