<?xml version="1.0" encoding="UTF-8"?>
<svg id="Layer_2" data-name="Layer 2" xmlns="http://www.w3.org/2000/svg" viewBox="0 0 427.47 346.07">
  <defs>
    <style>
      .cls-1 {
        fill: #71472d;
        stroke-width: 0px;
      }
    </style>
  </defs>
  <g id="Layer_1-2" data-name="Layer 1" shape-rendering="auto">
    <path class="cls-1" d="M329.74,94.14c-6.84,6.17-14.36,15.08-22.65,24.93-13.93,16.53-30.17,35.81-48.98,49.09-22.29,15.1-47.46,25.4-73.93,30.24-6.54,8.05-11.31,17.39-14.02,27.41-2.74,8.48-4.7,14.56-11.11,14.91-7.69-17.65-21.71-46.43-60.77-33.41-32.91,10.97-34.53,48.23-23.93,67.25,5.98,10.62,30.17,34.27,69.23,29.13l25.21,21.85c-2.48,4.63-7.01,11.22-22.05,17.73-18.72,8.14-105.81.86-113.93-52.09-20.34-17.65-52.22-66.99-17.09-123.02,10.77-17.13,25.9-29.47,43.85-37.44-.17-7.02-.17-15.16.09-24.5,1.71-51.4,49.66-92.86,87.18-101.86,36.5-8.74,113.51-5.83,145.13,22.44,102.91-38.38,129.23,87.04,125.56,134.67,19.15,37.69,5.98,91.41-.85,112.65-3.42-28.78-26.75-47.97-37.61-52.69,4.79-26.04-4.27-70.25-9.4-89.09-10.13-15.7-23.8-28.79-39.92-38.21Z"/>
  </g>
</svg>