<?xml version="1.0" encoding="UTF-8"?>
<svg id="Layer_2" data-name="Layer 2" xmlns="http://www.w3.org/2000/svg" viewBox="0 0 319.95 152.78">
  <defs>
    <style>
      .cls-1 {
        fill: #ededed;
      }

      .cls-1, .cls-2, .cls-3 {
        stroke-width: 0px;
      }

      .cls-2 {
        fill: #fff;
        fill-rule: evenodd;
      }

      .cls-3 {
        fill: #f7f7f7;
      }
    </style>
  </defs>
  <g id="Layer_1-2" data-name="Layer 1" shape-rendering="auto">
    <g>
      <path class="cls-2" d="M51.2,9.2c17.8,7.51,34.86,16.69,50.94,27.41l-2.39,3.43c-11.88-7.88-31.11-19.02-50.09-26.81-9.57-3.86-18.89-6.85-27.35-8.14-6.82-1.54-13.95-.94-20.43,1.71L0,3.03C7.29-.06,15.35-.81,23.08.89c8.72,1.37,18.46,4.45,28.21,8.4l-.09-.09ZM99.92,114.05l7.78-1.97,1.03,4.11-7.27,1.88c-6.32,1.71-11.97,3.17-17.69,3.68-8.12.69-16.5-.6-27.69-5.65l1.71-3.94c10.68,4.88,18.38,6,25.64,5.31,5.3-.43,10.43-1.8,16.58-3.43h-.09Z"/>
      <path class="cls-3" d="M245.82,15.19c-48.96.43-97.65,7.19-144.88,20.13,11.97,20.56,16.24,50.97,4.27,81.81,39.23,22.27,131.46,57.05,186.59,17.99,13.09-13.59,22.3-30.45,26.67-48.83,8.21-33.92-19.66-58.94-34.62-67.25-8.21-1.37-24.36-3.77-38.04-3.86Z"/>
      <path class="cls-1" d="M96.24,38.75c2.05-3.43,11.11-6.17,16.24-6.43,2.56,2.57,7.86,14.65,8.55,42.41.85,34.7-5.98,44.55-6.84,46.69-.6,1.63-11.97-4.28-14.53-5.57s-2.56-3.86,0-9.42c5.56-11.99,2.56-46.69,0-54.4-2.05-6.17-2.56-10.97-3.42-13.28Z"/>
      <path class="cls-1" d="M265.05,43.46c-30.09-4.11-90.6,15.42-117.1,25.7,97.78-24.67,155.3-10.28,171.8,0-5.73-6.85-24.62-21.59-54.7-25.7ZM182.14,94.01c22.22,10.54,78.12,26.73,123.93,6.85-21.37,17.13-76.07,39.75-123.93-6.85Z"/>
    </g>
  </g>
</svg>