<?xml version="1.0" encoding="UTF-8"?>
<svg xmlns="http://www.w3.org/2000/svg" viewBox="0 0 325.98 319.53">
  <defs>
    <style>
      .cls-1 {
        fill: rgba(0, 0, 0, .1);
      }

      .cls-1, .cls-2, .cls-3, .cls-4, .cls-5 {
        stroke-width: 0px;
      }

      .cls-2 {
        fill: #351700;
        mix-blend-mode: multiply;
        opacity: .3;
      }

      .cls-2, .cls-6 {
        isolation: isolate;
      }

      .cls-3 {
        fill: rgba(255, 255, 255, .1);
      }

      .cls-4 {
        fill: rgba(0, 0, 0, .3);
      }

      .cls-5 {
        fill: #71472d;
      }
    </style>
  </defs>
  <g class="cls-6">
    <g id="Layer_2" data-name="Layer 2">
      <g id="Layer_1-2" data-name="Layer 1" shape-rendering="auto">
        <g>
          <path class="cls-5" d="M64.44,32.63v-.51C64.44,14.37,78.8,0,96.5,0c11.78,0,22.6,6.48,28.2,16.87,11.1-13.76,31.23-15.89,44.96-4.77,8.92,7.23,13.29,18.69,11.46,30.04,17.6,1.9,30.33,17.74,28.44,35.38-1.59,14.83-13.16,26.61-27.93,28.44-2.74,37.95-31.88,67.76-67.35,67.76-21.53-.25-41.57-11.03-53.68-28.87-17.35,3.74-34.44-7.33-38.17-24.72-.46-2.15-.7-4.34-.72-6.55,0-10.28,4.79-19.36,12.22-25.27-14.23-10.47-17.3-30.52-6.85-44.79,8.56-11.69,23.88-16.15,37.36-10.9Z"/>
          <path class="cls-3" d="M64.44,32.63v-.51C64.44,14.37,78.8,0,96.5,0c11.78,0,22.6,6.48,28.2,16.87,11.1-13.76,31.23-15.89,44.96-4.77,8.92,7.23,13.29,18.69,11.46,30.04,17.6,1.9,30.33,17.74,28.44,35.38-1.59,14.83-13.16,26.61-27.93,28.44-2.74,37.95-31.88,67.76-67.35,67.76-21.53-.25-41.57-11.03-53.68-28.87-17.35,3.74-34.44-7.33-38.17-24.72-.46-2.15-.7-4.34-.72-6.55,0-10.28,4.79-19.36,12.22-25.27-14.23-10.47-17.3-30.52-6.85-44.79,8.56-11.69,23.88-16.15,37.36-10.9Z"/>
          <g>
            <path class="cls-4" d="M64.87,32.97c4.27.86,13.93,4.45,18.38,11.99-4.02-8.57-9.4-24.16-8.8-36.15-6.14,5.81-9.73,13.82-10,22.27,0,0,.43,1.88.43,1.88ZM25.89,47.11c4.79,11.99,18.8,32.64,43.68,32.98-3.16,3.6-8.46,12.59-4.7,20.13,4.7,9.42,63.68,11.57,82.48,11.99,17.09.43,50.43-27.93,58.98-52.69,8.02,15.82,1.73,35.16-14.06,43.19-3.31,1.68-6.88,2.78-10.56,3.24-.43,5.23-1.37,10.28-2.65,15.16-27.61,10.62-73.76,24.84-108.55,35.12-3.69-3.41-7.01-7.2-9.91-11.31-17.35,3.74-34.44-7.33-38.17-24.72-.47-2.21-.71-4.46-.72-6.72,0-10.28,4.79-19.36,12.22-25.27-12.46-9.83-15.84-27.33-7.95-41.12h-.09Z"/>
            <path class="cls-4" d="M192.9,45.82c-4.73,8.53-13.61,13.9-23.33,14.14,4.58-5.45,8.48-11.43,11.62-17.82,4.19.43,8.12,1.71,11.71,3.68h0ZM159.31,6.67c-13.68,3.08-26.67,15.08-32.05,21.59-.04-4.08-.74-8.13-2.05-11.99,8.41-9.83,21.91-13.62,34.19-9.59h-.09Z"/>
          </g>
          <path class="cls-2" d="M230.6,167.9c5.3-7.2,7.09-10.71,12.82-10.71s11.8,9.34,18.55,10.71c8.38,1.71,15.38-2.57,22.05-1.71s4.02,5.14,8.38,14.99c4.44,9.85,11.97,12.85,14.19,15.85s0,9,1.71,13.28c1.79,4.28,7.09,6,8.46,9.85,1.28,3.86-1.37,5.14,1.28,10.71,2.14,4.45,6.15,8.4,7.95,9.85l-10.6-39.41c-11.58-30.98-39.25-53.05-71.97-57.4-91.88-25.7-169.58,71.1-196.93,122.93l19.66,38.12c5.13-1.54,12.31-4.71,18.29-11.57,7.52-8.57,4.87-29.13,7.52-37.69s7.09-12.85,22.05-19.28c15.04-6.43,14.19-18.42,21.71-27.84,7.44-9.42,23.76-4.28,30.86-10.28s.85-14.56,10.6-22.27,24.27-3.86,32.22,0c7.95,3.86,14.53.86,21.2-8.14Z"/>
          <path class="cls-5" d="M100.68,106.56C18.88,134.23-18.9,226.58,9.22,319.53c3.16-10.02,13.42-29.38,35.9-26.99,3.76.86,13.68,5.14,23.59,15.42,31.97-167.05,165.39-164.91,204.28-149.06,37.95,15.42,47.01,75.39,49.15,83.87,1.37,1.37,3.59.26,3.5-1.8-3.59-137.32-135.56-164.57-224.96-134.41Z"/>
          <g>
            <path class="cls-1" d="M161.02,101.93c18.21,7.71,57.95,26.9,70.94,41.98-6.58-13.96-29.92-41.98-70.94-41.98ZM140.51,110.5c3.68,13.11,12.99,41.46,20.51,49.69.6-8.74-2.74-30.84-20.51-49.69ZM111.88,113.93c-1.28,14.31-.6,47.55,12.39,66.39-21.69-14.92-27.24-44.62-12.39-66.39ZM79.82,232.58c-13.95-35.51-10.3-75.54,9.83-107.94-45.81,57.23-31.37,109.83-18.38,128.93-6.84-10.97-7.09-32.55-6.41-41.98.34,9.94,10.09,18.16,14.96,20.99Z"/>
            <path class="cls-1" d="M61.45,143.91c-14.7,24.67-38.12,84.72-14.53,127.22-15.21-17.13-33.68-66.56,14.53-127.22ZM210.6,107.07c17.27,5.14,55.64,21.67,71.37,46.69-15.15-25.93-41.58-43.22-71.37-46.69Z"/>
          </g>
        </g>
      </g>
    </g>
  </g>
</svg>