<?xml version="1.0" encoding="UTF-8"?>
<svg id="Layer_2" data-name="Layer 2" xmlns="http://www.w3.org/2000/svg" viewBox="0 0 173.59 106.75">
  <defs>
    <style>
      .cls-1 {
        fill: #ee7e8b;
      }

      .cls-1, .cls-2, .cls-3 {
        stroke-width: 0px;
      }

      .cls-2 {
        fill: #873c41;
      }

      .cls-3 {
        fill: #fff;
      }
    </style>
  </defs>
  <g id="Layer_1-2" data-name="Layer 1" shape-rendering="auto">
    <g>
      <path class="cls-2" d="M125.88,28.33c2.56,1.45,20.6-21.2,32.65-14.28,4.02,2.31,7.09,6.24,9.4,10.52,5.13,9.41,6.84,20.86,4.87,31.46-3.37,14.52-12.26,27.16-24.79,35.23-31.97,21.8-57.27,17.7-91.28,5.13C29.89,86.39-6.52,65.95,1,29.1c13.33-64.98,124.87-.86,124.87-.86v.09Z"/>
      <path class="cls-3" d="M62.29,27.91c-9.7,2.56-20.01,1.2-28.72-3.76-7.24-4.62-11.8-12.46-12.22-21.03,22.48-8.81,57.52,3.08,80.77,13.34l-11.11,33.26c-10.94-1.8-22.22-8.04-25.04-18.9-.43-1.71-1.88-3.33-3.68-2.91h0ZM149.13,13.46c3.25,12.57-4.87,29.84-16.67,36.25-11.97,7.44-26.75,5.99-32.05,1.54l9.57-31.21c9.66,4.62,15.9,8.21,15.9,8.21,1.97,1.2,12.82-11.63,23.25-14.79h0Z"/>
      <path class="cls-1" d="M131.86,94c-18.8-17.19-41.8-26.85-65.13-33.6-20-5.9-42.48-9.66-62.74-3.85,9.4,20.09,33.51,32.66,52.74,39.84,29.74,11.03,52.82,15.56,79.49,1.88-1.45-1.45-2.82-2.91-4.36-4.28h0Z"/>
    </g>
  </g>
</svg>