<?xml version="1.0" encoding="UTF-8"?>
<svg id="Layer_2" data-name="Layer 2" xmlns="http://www.w3.org/2000/svg" viewBox="0 0 330.84 112.38">
  <defs>
    <style>
      .cls-1 {
        fill: #896307;
      }

      .cls-1, .cls-2 {
        fill-rule: evenodd;
        stroke-width: 0px;
      }

      .cls-2 {
        fill: #c5900f;
      }
    </style>
  </defs>
  <g id="Layer_1-2" data-name="Layer 1" shape-rendering="auto">
    <g>
      <path class="cls-1" d="M329.49,62.54l-41.88-1.54-.43-9,42.57,1.97-.17,8.57h-.09Z"/>
      <path class="cls-2" d="M179.92,8.91c-23.25,3.68-39.32,27.58-35.21,53.97,4.19,26.47,26.84,44.2,50.09,40.52,23.25-3.68,39.4-27.58,35.3-53.97-4.19-26.39-26.84-44.2-50.09-40.52h-.09ZM135.64,53.72c.43-26.21,17.86-49.17,42.99-53.11,28.46-4.54,55.04,17.13,59.83,47.63l2.82-1.03c3.6-1.11,7.41-1.31,11.11-.6.51-10.71,3.59-20.56,8.72-28.27,5.71-9.69,15.74-16,26.92-16.96,11.34-.21,22.12,4.97,29.06,13.96,8.07,9.93,12.79,22.17,13.5,34.95,1.12,12.69-1.88,25.4-8.55,36.24-5.75,9.68-15.81,15.96-27.01,16.88-11.33.23-22.1-4.91-29.06-13.88-7.88-9.7-12.57-21.61-13.42-34.1-2.91-1.2-5.98-1.03-8.89-.17-1.79.51-3.42,1.29-4.53,1.88.26,26.81-17.35,50.54-42.99,54.66-28.55,4.45-55.04-17.22-59.83-47.63-.09-.63-.18-1.26-.26-1.88l-73.85-11.99c-12.66-2.06-25.62-1.3-37.95,2.23-10.26,3.43-15.64,16.11-15.81,23.99l-8.46-.17c.26-13.11,9.74-27.93,21.62-31.95,11.8-3.94,27.09-4.54,41.71-2.57v.09l72.31,11.65v.17ZM268.13,23.05c-5.63,9.24-8.14,20.05-7.18,30.84.85,12.08,5.21,22.7,11.45,29.98,6.24,7.45,14.19,11.39,22.22,10.97,7.95-.43,15.21-5.14,20.34-13.02,5.65-9.27,8.16-20.11,7.18-30.93-.85-12.08-5.13-22.7-11.45-29.98-6.24-7.37-14.1-11.39-22.22-10.97-7.95.43-15.13,5.14-20.34,13.11h0Z"/>
    </g>
  </g>
</svg>