<?xml version="1.0" encoding="UTF-8"?>
<svg xmlns="http://www.w3.org/2000/svg" viewBox="0 0 332.99 340.36">
  <defs>
    <style>
      .cls-1 {
        fill: rgba(0, 0, 0, .2);
        mix-blend-mode: multiply;
      }

      .cls-1, .cls-2 {
        isolation: isolate;
      }

      .cls-1, .cls-3, .cls-4 {
        stroke-width: 0px;
      }

      .cls-3 {
        fill: rgba(0, 0, 0, .3);
      }

      .cls-4 {
        fill: #71472d;
      }
    </style>
  </defs>
  <g class="cls-2">
    <g id="Layer_2" data-name="Layer 2">
      <g id="Layer_1-2" data-name="Layer 1" shape-rendering="auto">
        <g>
          <path class="cls-4" d="M214.6,63.32c6.84,31.53,42.48,46.52,59.4,50.12,5.81,20.22,7.27,61.51,7.27,79.24,11.87,6.14,21.79,15.49,28.63,26.99-2.13-7.9-1.84-16.26.85-23.99.85-3.77,2.05-8.05,2.99-13.71,2.65-16.02-13.93-36.67-22.74-47.72-1.11-1.37-2.14-2.57-2.91-3.68-3.5-4.63-2.39-14.56-1.2-25.61,1.37-11.57,2.82-24.33-.94-33.07-7.27-17.13-30.77-32.13-43.16-33.41-5.13-.51-8.03-3.77-12.22-8.31-5.98-6.6-14.7-16.11-36.07-24.67-21.69-8.3-45.86-7.15-66.67,3.17C44.6,15.77,14.17,101.18,12.46,105.55v.17C3.32,128.57-.87,153.09.15,177.68c32.56,5.65,47.95,40.61,51.63,57.4,0,0,9.66.6,11.97-1.29,11.97-6.25,33.25-32.04,22.65-84.81-5.13-23.99-1.71-43.09,40.17-72.82,25.98-18.42,61.54-18.25,88.04-12.85ZM305.2,288.62c3.42-6.25,10.94-22.53,11.97-35.55,8.27,7.92,13.81,18.27,15.81,29.56.21,8.34-2.02,16.56-6.41,23.64-2.82,5.57-5.21,10.45-4.27,14.48,1.71,7.2,5.56,11.82,7.27,13.28-11.71,5.31-42.82,12.85-68.8-4.28,8.55-4.28,29.92-19.19,44.45-41.12Z"/>
          <path class="cls-3" d="M214.6,63.32c-7.27-16.71-35.04-50.89-88.04-53.97l1.28-.69C44.6,15.77,14.17,101.18,12.46,105.55v.17C3.32,128.57-.87,153.09.15,177.68c32.56,5.65,47.95,40.61,51.63,57.4,0,0,9.66.6,11.97-1.29,11.97-6.25,33.25-32.04,22.65-84.81-5.13-23.99-1.71-43.09,40.17-72.82,25.98-18.42,61.54-18.25,88.04-12.85Z"/>
          <path class="cls-1" d="M300.07,206.72c-1.71-4.03-.85-7.62.26-11.82.6-2.4,1.2-4.88,1.45-7.8.68-7.54-1.71-17.13-2.99-20.99,0,4.11-.43,14.14-2.14,20.99-1.13,4.21-3.11,8.15-5.81,11.57,3.42,2.57,6.58,5.4,9.15,8.05h.09ZM320.16,337.28l1.28-1.54c-10.68-15.85-4.7-31.27,0-41.55,2.78-5.97,2.78-12.87,0-18.85,0,10.79-2.82,14.48-6.75,19.36-7.37,8.48-11.28,19.43-10.94,30.67,0,3.94,0,6.17-1.97,5.23-3.42-1.71-4.87-5.83-5.13-7.71-.96,5.8-.79,11.74.51,17.48,8.72,0,16.67-1.29,23.08-3.08h-.09ZM240.24,85.16c-8.82-7.61-15.58-17.34-19.66-28.27,2.99,5.57,13.68,19.1,32.48,28.27s25.81,19.53,26.92,23.56c-4.02-7.2-12.31-10.54-21.2-14.05-6.32-2.57-12.99-5.14-18.55-9.51Z"/>
        </g>
      </g>
    </g>
  </g>
</svg>