<?xml version="1.0" encoding="UTF-8"?>
<svg id="Layer_2" data-name="Layer 2" xmlns="http://www.w3.org/2000/svg" viewBox="0 0 132.47 30.53">
  <defs>
    <style>
      .cls-1 {
        fill: #592125;
        fill-rule: evenodd;
        stroke-width: 0px;
      }
    </style>
  </defs>
  <g id="Layer_1-2" data-name="Layer 1" shape-rendering="auto">
    <path class="cls-1" d="M87.98,0c.85,0,1.71.34,2.48.94,3.59,3.42,9.74,7.87,16.67,10,6.75,2.14,13.68,1.88,19.66-3.25,1.42-1.25,3.58-1.12,4.83.3s1.12,3.58-.3,4.83h0c-7.26,6.18-17.28,7.97-26.24,4.7-6.13-2.05-11.81-5.24-16.75-9.41C65.87,31.74,30.37,37.35,1.74,21.8c-1.65-.94-2.23-3.05-1.28-4.7s3.05-2.23,4.7-1.28c26.91,14.56,60.33,8.44,80.34-14.71C86.14.41,87.03.01,87.98,0h0Z"/>
  </g>
</svg>