<?xml version="1.0" encoding="UTF-8"?>
<svg id="Layer_2" data-name="Layer 2" xmlns="http://www.w3.org/2000/svg" viewBox="0 0 294.14 277.12">
  <defs>
    <style>
      .cls-1 {
        fill: rgba(0, 0, 0, .1);
      }

      .cls-1, .cls-2, .cls-3, .cls-4 {
        stroke-width: 0px;
      }

      .cls-2 {
        fill: rgba(255, 255, 255, .2);
      }

      .cls-3 {
        fill: rgba(255, 255, 255, .7);
      }

      .cls-4 {
        fill: #71472d;
      }
    </style>
  </defs>
  <g id="Layer_1-2" data-name="Layer 1" shape-rendering="auto">
    <g>
      <path class="cls-4" d="M294.14,48.67C230.89,5.32,85.25-48.65,8.67,82.94l24.1,27.41c-14.53,19.19-21.54,35.89-21.97,37.01C3.28,166.21.55,187.02.03,207.84c-.09,3.94,0,7.88.17,11.82,32.56,5.57,47.95,40.52,51.63,57.4,0,0,9.66.51,11.97-1.37,11.97-6.25,33.25-32.04,22.65-84.81-5.13-23.99-1.71-43.09,40.17-72.82,17.61-12.42,39.57-16.45,60.09-16.02,2.85.15,5.7.3,8.55.43,24.96,1.97,46.5,9.85,53.59,15.59,10.94,8.91,16.24,12.34,17.44,12.85-4.79-10.79-10.26-20.13-16.24-28.1,6.67-16.28,18.72-38.12,34.79-49.17,2.99-2.06,6.07-3.77,9.32-4.97h0Z"/>
      <path class="cls-2" d="M8.67,82.94C85.25-48.65,230.89,5.32,294.14,48.67c-17.09-11.74-98.72-34.7-135.9-15.85l.34.6C87.64,18,29.44,59.55,8.67,82.94Z"/>
      <path class="cls-1" d="M294.14,48.67c-25.98,9.59-43.59,49.69-48.72,66.82-24.36-11.99-40.17-12.85-65.81-13.71,3.42-28.1-15.13-58.08-21.37-68.96,37.18-18.85,118.81,4.11,135.9,15.85Z"/>
      <path class="cls-3" d="M179.78,100.41c-.68-10.28-34.79-35.21-69.4-31.18-46.24,5.48-73.93,38.55-76.07,42.83l-1.54-1.71c-14.53,19.19-21.54,35.89-21.97,37.01C3.28,166.21.55,187.02.03,207.84c-.09,3.94,0,7.88.17,11.82,32.56,5.57,47.95,40.52,51.63,57.4,0,0,9.66.51,11.97-1.37,11.97-6.25,33.25-32.04,22.65-84.81-5.13-23.99-1.71-43.09,40.17-72.82,17.61-12.42,39.57-16.45,60.09-16.02l-7.09-.26.17-1.37h0ZM195.25,102.47c24.96,1.97,46.5,9.85,53.59,15.59,10.94,8.91,16.24,12.34,17.44,12.85-4.79-10.79-10.26-20.13-16.24-28.1-2.05,4.8-3.59,9.17-4.62,12.59v.09c-15.56-8.01-32.69-12.46-50.17-13.02Z"/>
    </g>
  </g>
</svg>