<?xml version="1.0" encoding="UTF-8"?>
<svg id="Layer_2" data-name="Layer 2" xmlns="http://www.w3.org/2000/svg" viewBox="0 0 210.69 67.33">
  <defs>
    <style>
      .cls-1 {
        fill: #5e351b;
      }

      .cls-1, .cls-2 {
        stroke-width: 0px;
      }

      .cls-2 {
        fill: #71472d;
      }
    </style>
  </defs>
  <g id="Layer_1-2" data-name="Layer 1" shape-rendering="auto">
    <g>
      <path class="cls-2" d="M139.13,9.08c7.69-4.45,26.24-12.25,39.06-7.71,7.44,2.57,12.74,8.48,17.35,13.71,5.13,5.57,9.4,10.28,14.79,9.17.26,0,.51.34.26.51-4.87,4.03-22.22,17.13-33.68,17.65-13.93.77-20.68-6-31.11-16.28l-3.25-3.17c-3.25,8.74-15.38,20.3-43.08,34.27C49.05,82.5,15.97,54.66.07,35.81c-.26-.26.26-.69.51-.6,6.15,3.6,13.08.43,30.6-7.71,8.03-3.68,15.21-7.45,21.88-10.97C69.56,7.8,83.06.69,98.36.52c14.02.14,27.88,3.05,40.77,8.57h0Z"/>
      <path class="cls-1" d="M93.06,15.77c9.4-4.11,27.86-.86,35.9,1.2-28.21-.86-36.24,9.51-58.8,21.67-13.15,7.2-28.97,7.52-42.39.86,23.76,7.54,53.59-18.5,65.3-23.73h0ZM116.14,31.1c-7.09,6.51-24.1,19.53-36.15,19.87,8.97-6.77,28.63-20.13,36.15-19.87ZM154.35,11.74c3.93-1.88,13.5-4.37,20.51.69,7.95,5.57,14.1,10.54,18.12,10.62-4.19.34-11.97-.17-18.29-4.63-6.07-3.99-13.09-6.29-20.34-6.68h0Z"/>
    </g>
  </g>
</svg>