<?xml version="1.0" encoding="UTF-8"?>
<svg id="Layer_2" data-name="Layer 2" xmlns="http://www.w3.org/2000/svg" viewBox="0 0 117.44 68.69">
  <defs>
    <style>
      .cls-1 {
        fill: #71472d;
      }

      .cls-1, .cls-2 {
        stroke-width: 0px;
      }

      .cls-2 {
        fill: #2a1200;
      }
    </style>
  </defs>
  <g id="Layer_1-2" data-name="Layer 1" shape-rendering="auto">
    <g>
      <path class="cls-2" d="M34.14,51.8c0,10.17-5.3,18.38-16.33,16.67-7.95-2.14-13.25-7.7-13.25-18.38s6.58-18.38,13.25-18.38c9.06,0,16.33,9.92,16.24,20.09h.09ZM109.19,51.62c0,6.84-3.08,14.11-10.94,13.25-6.67-.68-8.29-9.41-8.29-13.68,0-7.44,3.76-14.54,9.23-14.54,5.81,0,10,8.12,10,14.96Z"/>
      <path class="cls-1" d="M39.1,3.66C28.06-1.61,15.14-1.17,4.48,4.86,1.06,6.82-1.16,11.44.64,15.37c1.62,3.59,5.98,5.9,9.57,3.85,1.11-.68,2.22-1.2,3.42-1.71.34-.17,1.28-.34,1.62-.6l.51-.17c1.82-.48,3.68-.79,5.56-.94h1.62c1.81.06,3.61.29,5.38.68l1.71.51c1.11.34,2.22.86,3.42,1.37,3.42,1.71,8.21-.68,9.49-4.53,1.45-4.28-.26-8.38-3.93-10.17h.09ZM113.03,7.34c-6.32-3.42-13.68-4.28-20.17-2.31-1.71.51-3.42,2.05-4.1,3.76-.85,1.71-.85,4.1-.17,5.99.72,1.94,2.12,3.55,3.93,4.53,1.74.91,3.75,1.13,5.64.6l.94-.26h3.08c1.2.09,2.39.43,3.59.86l1.2.51c1.71.94,3.93,1.2,5.73.6,1.71-.51,3.42-1.97,4.1-3.76.68-1.71.94-3.93.17-5.9-.85-1.97-2.05-3.59-3.93-4.62h0Z"/>
    </g>
  </g>
</svg>