<?xml version="1.0" encoding="UTF-8"?>
<svg id="Layer_2" data-name="Layer 2" xmlns="http://www.w3.org/2000/svg" viewBox="0 0 173.59 106.75">
  <defs>
    <style>
      .cls-1 {
        fill: #ee7e8b;
      }

      .cls-1, .cls-2, .cls-3 {
        stroke-width: 0px;
      }

      .cls-2 {
        fill: #873c41;
      }

      .cls-3 {
        fill: #fff;
      }
    </style>
  </defs>
  <g id="Layer_1-2" data-name="Layer 1" shape-rendering="auto">
    <g>
      <path class="cls-2" d="M125.88,28.33c2.56,1.45,20.6-21.2,32.65-14.28,4.02,2.31,7.09,6.24,9.4,10.52,5.13,9.41,6.84,20.86,4.87,31.46-3.37,14.52-12.26,27.16-24.79,35.23-31.97,21.8-57.27,17.7-91.28,5.13C29.89,86.39-6.52,65.95,1,29.1c13.33-64.98,124.87-.86,124.87-.86v.09Z"/>
      <path class="cls-3" d="M33.57,24.06c8.72,5.47,19.23,5.99,28.72,3.85,1.79-.43,3.25,1.11,3.68,2.91,4.62,17.96,30.77,27.36,44.02,15.82,1.03-.86,2.82-1.11,3.85-.09,7.09,6.67,18.46,8.55,26.84,3.93,11.8-6.41,11.71-24.45,8.55-37.02-10.43,3.16-21.37,15.99-23.33,14.79,0,0-68.46-39.33-104.53-25.14.43,8.58,4.98,16.42,12.22,21.03v-.09Z"/>
      <path class="cls-1" d="M131.86,94c-18.8-17.19-41.8-26.85-65.13-33.6-20-5.9-42.48-9.66-62.74-3.85,9.4,20.09,33.51,32.66,52.74,39.84,29.74,11.03,52.82,15.56,79.49,1.88-1.45-1.45-2.82-2.91-4.36-4.28h0Z"/>
    </g>
  </g>
</svg>