<?xml version="1.0" encoding="UTF-8"?>
<svg id="Layer_2" data-name="Layer 2" xmlns="http://www.w3.org/2000/svg" viewBox="0 0 253.85 80.65">
  <defs>
    <style>
      .cls-1 {
        fill: #ffc00c;
      }

      .cls-1, .cls-2, .cls-3, .cls-4, .cls-5 {
        stroke-width: 0px;
      }

      .cls-2 {
        fill: #ff3c15;
      }

      .cls-3 {
        fill: #ffd45b;
      }

      .cls-4 {
        fill: #ff7256;
      }

      .cls-5 {
        fill: #cb1414;
      }
    </style>
  </defs>
  <g id="Layer_1-2" data-name="Layer 1" shape-rendering="auto">
    <g>
      <path class="cls-1" d="M19.66,1.41c87.1-9.59,173.51,32.38,196.16,51.83,8.21-9.59,21.71-21.16,31.11-22.27,2.22,5.14,5.98,17.99,6.92,20.99-13.68,0-28.63,16.96-35.98,28.7C160.69,30.96,81.03,30.96,0,30.96,4.32,19.79,11.03,9.7,19.66,1.41Z"/>
      <path class="cls-3" d="M135.64,40.64c-5.13-1.2-10.43-2.23-15.64-3.08l19.15-21.85c4.62,1.46,9.15,3,13.5,4.63l-17.01,20.3h0ZM175.64,54.09c-1.53-.71-3.07-1.39-4.62-2.06l13.42-18.16,4.44,2.31-13.25,17.9h0ZM191.97,62.57c-3.16-1.88-6.32-3.6-9.4-5.14l12.48-17.99c2.91,1.71,5.64,3.26,8.03,4.8l-11.11,18.33ZM247.19,53.15c-6.14,2.51-11.68,6.31-16.24,11.14l16.41-32.3c1.37,3.43,3.16,9.17,4.53,13.71l-4.7,7.45Z"/>
      <ellipse class="cls-2" cx="216.42" cy="63.51" rx="7.52" ry="11.57"/>
      <path class="cls-5" d="M216.42,75.08c4.1,0,7.52-5.14,7.52-11.57,0-.69,0-1.46-.17-2.14-2.47,5.11-6.77,9.08-12.05,11.14,1.28,1.71,2.91,2.57,4.7,2.57h0Z"/>
      <path class="cls-4" d="M213.25,61.8c1.28.51,2.91-.86,3.68-3.17.68-2.14.17-4.28-1.11-4.8-1.37-.43-2.99.94-3.68,3.17-.68,2.14-.26,4.28,1.11,4.8Z"/>
    </g>
  </g>
</svg>