<?xml version="1.0" encoding="UTF-8"?>
<svg id="Layer_2" data-name="Layer 2" xmlns="http://www.w3.org/2000/svg" viewBox="0 0 267.45 226.82">
  <defs>
    <style>
      .cls-1 {
        fill: #71472d;
        stroke-width: 0px;
      }
    </style>
  </defs>
  <g id="Layer_1-2" data-name="Layer 1" shape-rendering="auto">
    <path class="cls-1" d="M.09,157.7c-.17,3.94-.09,7.88.09,11.82,32.91,5.48,48.46,40.43,52.14,57.23,0,0,9.74.51,11.97-1.29,12.22-6.34,33.76-32.13,23.16-84.9-5.13-23.99-1.62-43.18,40.86-72.99,42.39-29.9,109.83-11.39,123.59-.34,11.11,8.91,12.22,10.28,15.56,12.42C238.05,13.27,180.35,4.53,180.35,4.53,63.34-24.77,13.43,97.57,13.43,97.57,5.73,116.41.61,136.8.09,157.7h0Z"/>
  </g>
</svg>