<?xml version="1.0" encoding="UTF-8"?>
<svg id="Layer_2" data-name="Layer 2" xmlns="http://www.w3.org/2000/svg" viewBox="0 0 325.66 236.21">
  <defs>
    <style>
      .cls-1 {
        fill: rgba(0, 0, 0, .1);
      }

      .cls-1, .cls-2 {
        stroke-width: 0px;
      }

      .cls-2 {
        fill: #71472d;
      }
    </style>
  </defs>
  <g id="Layer_1-2" data-name="Layer 1" shape-rendering="auto">
    <g>
      <path class="cls-2" d="M302.23,43.56c17.27-5.14,22.65,17.13,23.42,31.87v2.83c.26,17.3-5.64,36.15-20.86,44.03-2.46-2.22-4.74-4.63-6.84-7.2-6.41-6-13.25-11.31-20.51-15.93-21.85-14.2-47.68-20.99-73.68-19.36-30.94,1.97-64.79,10.19-88.04,31.53-22.99,20.99-37.09,56.97-36.33,91.41l.17,4.11c.51,8.48,1.45,24.76-1.88,27.16l-.51.26-2.05,1.54c-2.56,1.97-5.64-3.26-9.66-10.37-4.79-8.57-11.11-19.7-20.26-24.42-14.38-6.9-31.59-3.2-41.88,9-1.71-8.05-2.56-13.71-2.99-18.5v.09c-.08-2.28-.16-4.57-.26-6.85v.51-4.8c-.03-7.87.43-15.74,1.37-23.56,3.25-32.55,12.91-64.76,31.71-90.72,19.15-26.39,48.55-44.8,77.69-55.68,31.66-12.58,66.69-13.79,99.15-3.43,19.83,6.51,38.04,17.82,55.04,31.01,1.2-1.54,2.56-3,4.19-4.11,7.09-4.97,17.95-1.8,21.97,6.25,1.37,2.91,2.56,5.83,3.42,8.82,1.97-2.57,4.62-4.54,7.69-5.48h-.09Z"/>
      <path class="cls-1" d="M209.92,6.98c19.91,6.6,38.12,17.99,55.13,31.1.85-1.2,1.97-2.31,3.16-3.26-2.39,2.66-4.27,6.08-5.73,9.42-6.84-5.83-15.56-9.08-24.19-6.43-8.29,2.57-14.19,9.59-17.69,17.9-19.83-11.99-41.03-16.53-65.3-11.91-29.06,5.48-54.53,25.7-71.45,51.74-22.74,35.12-23.08,101.34-5.9,138.1l-2.82,2.06c-5.81,4.28-13.25-26.21-29.92-34.78-14.4-6.88-31.61-3.14-41.88,9.08-3.33-14.99-3.33-21.85-3.33-29.56,0-9.34.51-14.05,1.37-23.13v-.43c3.42-32.55,13.08-64.76,31.88-90.81,19.15-26.39,48.55-44.8,77.69-55.68,31.66-12.58,66.69-13.79,99.15-3.43h-.17Z"/>
    </g>
  </g>
</svg>