<?xml version="1.0" encoding="UTF-8"?>
<svg id="Layer_2" data-name="Layer 2" xmlns="http://www.w3.org/2000/svg" viewBox="0 0 308.55 117.53">
  <defs>
    <style>
      .cls-1 {
        fill: #9a3e91;
      }

      .cls-1, .cls-2, .cls-3 {
        stroke-width: 0px;
      }

      .cls-2 {
        fill: #5e0e56;
      }

      .cls-3 {
        fill: #f9acf1;
        fill-rule: evenodd;
      }
    </style>
  </defs>
  <g id="Layer_1-2" data-name="Layer 1" shape-rendering="auto">
    <g>
      <path class="cls-2" d="M9.4,55.87c5.56,0,82.91-1.97,108.55-6l23.5,49.69c-34.87,8.22-80.6,8.31-99.15,7.28-10.51-12.27-26.22-18.79-42.31-17.56.34-7.54,3.85-33.41,9.4-33.41Z"/>
      <path class="cls-1" d="M299.41,33.6C243.68-21.32,163.08,1.73,128.98,27.86c-8.51,6-14.55,14.89-17.01,25.01-3.42,13.79-2.22,38.81,25.47,55.77,27.69,16.96,62.14,5.4,70.09,0,8.12-5.31,23.08-17.82,43.59-16.96,16.5.77,29.49,8.65,34.02,12.51,8.29,3.34,23.42-1.54,23.42-30.84s-5.56-37.27-9.15-39.66v-.09Z"/>
      <path class="cls-3" d="M205.82,64.69c2.74-5.02,3.87-10.76,3.25-16.45l-4.27.51c.51,3.86-.09,10.28-3.76,15.59-2.99,4.28-8.03,8.05-16.5,9.42-7.15,1.34-14.54.29-21.03-3-4.78-2.42-8.73-6.21-11.37-10.88l-3.85,1.88c1.71,3.43,5.38,7.97,10.94,11.48l-7.52,9.42,3.42,2.74,7.95-10.11c5.3,2.57,11.97,3.86,20,3l1.97,12.85,4.27-.6-2.05-12.94c7.52-1.71,12.65-5.14,16.15-9.42l8.03,4.03,1.88-3.77-7.52-3.77h0ZM291.72,70c4.02-3,6.41-7.2,7.52-10.28l-4.02-1.37c-1.43,3.85-4.07,7.13-7.52,9.34-3.97,2.32-8.77,2.73-13.08,1.11-5.81-1.8-9.49-5.14-11.8-8.57-2.56-4.2-3.42-8.57-3.42-11.14h-4.27c0,2.83.68,7.11,2.91,11.39l-7.52,3.86,1.97,3.86,7.95-4.11c2.48,3.26,5.98,6.17,10.94,8.05l-2.99,9.25,4.1,1.29,2.91-9.25c4.96,1.11,9.23.51,12.74-1.11l3.42,4.88,3.42-2.48-3.25-4.71h0Z"/>
    </g>
  </g>
</svg>