<?xml version="1.0" encoding="UTF-8"?>
<svg id="Layer_2" data-name="Layer 2" xmlns="http://www.w3.org/2000/svg" viewBox="0 0 118.32 74.56">
  <defs>
    <style>
      .cls-1 {
        fill: #71472d;
      }

      .cls-1, .cls-2, .cls-3 {
        stroke-width: 0px;
      }

      .cls-2 {
        fill: #fff;
      }

      .cls-3 {
        fill: #2a1200;
      }
    </style>
  </defs>
  <g id="Layer_1-2" data-name="Layer 1" shape-rendering="auto">
    <g>
      <path class="cls-3" d="M47.2,53.5c0,12.65-8.03,22.91-24.53,20.78-11.97-2.57-18.21-7.52-18.21-20.78s6.67-23.09,18.29-24.97c17.86-2.82,24.44,12.31,24.36,24.97h.09ZM112.33,50.51c0,10.09-4.19,20.86-14.7,19.67-8.8-1.11-11.11-13.94-11.11-20.26,0-11.12,5.13-21.46,12.39-21.55,7.86,0,13.42,12.06,13.42,22.14h0Z"/>
      <path class="cls-2" d="M97.8,36.06c.17-.86,1.37-.94,1.62-.09l2.22,7.52c.17.43.51.68.85.6l4.36-.68c.68,0,1.2.68.85,1.28l-3.59,6.07c-.12.21-.15.45-.09.68l2.22,7.52c.17.86-.85,1.54-1.45.86l-3.16-3.16c-.36-.3-.89-.27-1.2.09l-4.87,5.99c-.51.6-1.54.26-1.45-.6l.6-8.81c0-.26,0-.43-.17-.6l-4.79-4.87c-.51-.43-.17-1.37.51-1.45l4.44-.68c.34,0,.6-.26.68-.68l2.39-8.98h0ZM25.83,34.95c.15-.45.63-.69,1.08-.55.26.08.46.29.55.55l4.02,9.83c.17.34.51.6.85.51l8.29-1.03c.47-.05.89.29.94.76.02.22-.04.43-.17.61l-6.15,7.01c-.21.23-.27.56-.17.86l3.85,9.32c.18.44-.03.94-.46,1.12-.27.11-.58.08-.82-.09l-7.18-4.87c-.32-.2-.74-.17-1.03.09l-9.83,8.29c-.3.36-.84.41-1.2.11-.28-.23-.38-.62-.25-.96l1.45-10.52c.06-.33-.07-.66-.34-.86l-7.69-5.13c-.39-.27-.48-.81-.2-1.19.13-.18.33-.31.55-.35l8.38-1.11c.34,0,.6-.26.68-.51l4.87-11.97v.09Z"/>
      <path class="cls-1" d="M37.12,1.43C25.75-1.99,12.76.84,3.27,8.53.19,11.1-1.17,15.97,1.22,19.56c2.22,3.25,6.84,4.79,10.09,2.14,1.03-.86,1.97-1.54,3.08-2.22l1.54-.86.43-.26c1.73-.82,3.53-1.47,5.38-1.97l1.54-.26c1.81-.26,3.64-.34,5.47-.26.6,0,1.11.17,1.71.26,1.2.17,2.39.51,3.59.86,3.68,1.03,8.03-2.14,8.63-6.16.68-4.45-1.71-8.21-5.56-9.41h0ZM115.32,10.16c-5.56-4.62-12.48-6.84-19.32-6.33-1.92.23-3.65,1.25-4.79,2.82-1.18,1.69-1.67,3.77-1.37,5.81.29,2.06,1.32,3.95,2.91,5.3,1.54,1.25,3.49,1.87,5.47,1.71h.94c1.03,0,1.97.26,2.99.51,1.11.34,2.22.86,3.42,1.54l1.03.86c1.53,1.27,3.49,1.88,5.47,1.71,1.71-.17,3.76-1.28,4.79-2.82,1.03-1.71,1.71-3.76,1.37-5.81-.43-2.05-1.28-3.93-2.91-5.3h0Z"/>
    </g>
  </g>
</svg>