<?xml version="1.0" encoding="UTF-8"?>
<svg id="Layer_2" data-name="Layer 2" xmlns="http://www.w3.org/2000/svg" viewBox="0 0 337.47 374.94">
  <defs>
    <style>
      .cls-1 {
        fill: rgba(0, 0, 0, .2);
      }

      .cls-1, .cls-2 {
        stroke-width: 0px;
      }

      .cls-2 {
        fill: #71472d;
      }
    </style>
  </defs>
  <g id="Layer_1-2" data-name="Layer 1" shape-rendering="auto">
    <g>
      <path class="cls-2" d="M266.96,52.88c-27.78,38.55-90.6,117.79-176.93,146.06-6.84-12.92-20.47-20.75-35.04-20.13-23.5.43-32.05,17.56-32.05,17.56,0,0-27.35,45.83,35.9,74.96,17.52,3.43,23.08,3.43,37.18-2.57,9.57,7.45,39.83,32.72,50.43,36.84-2.74,14.39-7.52,50.37-1.03,66.82-12.39,1.11-42.57,7.45-66.5-5.57-2.39-14.65-4.53-33.84-.77-41.12-4.53,7.28-12.65,24.16-12.65,33.84-13.68-4.71-44.1-17.82-56.41-32.55C-9.97,237.07-16.81,19.05,176.36.63c16.92-1.97,60.17-.26,88.89,19.28,35.9,24.42,53.85,56.97,60.69,89.52-14.7-6.85-47.01-27.76-58.98-56.54ZM337.47,359.57c-5.81-8.22-2.39-45.57,0-58.25-23.93,20.13-38.04,29.98-87.18,31.27,8.55,12.85,41.88,17.56,45.73,19.28l6.84-4.71v6.85c11.34,2.96,22.93,4.82,34.62,5.57Z"/>
      <path class="cls-1" d="M234.14,41.41c15.38-1.37,22.48,7.02,22.48,7.02-11.88,1.37-36.58,20.3-36.67,20.3,17.69-2.4,39.92-8.4,39.92-8.4-.26,1.97-1.62,4.45-3.42,7.2,4.44-5.31,8.12-10.28,10.51-14.65,2.8,6.53,6.45,12.67,10.85,18.25-.76-5.34-2.38-10.51-4.79-15.33,0,0,11.62,6,13.16,10.88,0,0-3.85-15.42-15.73-27.41,0,0,7.44-1.29,13.5,2.91,0,0-9.66-14.39-22.22-22.1h2.82l-1.45-1.03c-11.11-7.62-24.19-12.34-36.92-15.25-7.86,2.48-13.25,9.25-13.25,9.25,10.6-1.71,27.35,5.65,27.35,5.65-15.81-1.71-35.73,12.25-35.73,12.25,15.83-5.66,33.37-3.73,47.61,5.23-7.09-.69-17.95,5.23-17.95,5.23h-.09Z"/>
      <path class="cls-1" d="M207.13,90.58c-11.97,15.16-50.94,51.91-111.11,77.96,19.06-11.99,68.04-44.38,111.11-77.96ZM48.15,168.53c34.87-74.02,105.73-115.91,136.76-127.64C104.9,54.6,51.57,133.67,34.9,171.53c3.08-1.37,10.09-2.57,13.25-3ZM30.2,258.06c1.71,2.14,6.67,5.48,9.4,6.85-1.11,18.85-2.74,55.26-1.88,71.36-1.71-16.19-3.85-43.52-3.25-58.51-3.16,11.39-8.46,15.25-4.7,62.54-4.02-30.58-10.17-63.74.43-82.24ZM316.1,318.02c2.39-1.03,6.41-3.86,8.12-5.14-3.08,5.14-1.88,31.01-.85,43.26-2.05-1.71-3.42-8.14-3.85-11.14-1.37,4.45-4.02,4.71-3.42,11.14-3.76-8.57-.43-24.42,0-38.12ZM123.79,311.17c-4.1,37.35-2.14,47.55,1.28,63.39h-17.09c-6.15-30.15,9.57-44.55,15.81-63.39Z"/>
    </g>
  </g>
</svg>