<?xml version="1.0" encoding="UTF-8"?>
<svg xmlns="http://www.w3.org/2000/svg" viewBox="0 0 322.45 82.93">
  <defs>
    <style>
      .cls-1 {
        fill: #fff;
        opacity: .2;
      }

      .cls-1, .cls-2 {
        stroke-width: 0px;
      }

      .cls-1, .cls-2, .cls-3 {
        isolation: isolate;
      }

      .cls-2 {
        fill: #595757;
        mix-blend-mode: multiply;
      }
    </style>
  </defs>
  <g class="cls-3">
    <g id="Layer_2" data-name="Layer 2">
      <g id="Layer_1-2" data-name="Layer 1" shape-rendering="auto">
        <g>
          <path class="cls-2" d="M149.59,48.03c3.16,13.62,9.57,25.96,20.77,30.24,24.79,9.42,60.69,2.57,65.81-3,3.13-5.43,5.35-11.33,6.58-17.48,14.53-8.22,27.18-3.77,31.37-.86,1.11,6.6,2.22,11.99,3.16,13.54,2.56,4.8,20.77,10.71,33.33,2.57,12.65-8.14,13.08-57.4,10.68-62.54-2.91-6.25-47.61-3.26-49.49,8.57-1.28,3.6-.6,14.73.68,25.7-6.84-2.23-16.33-3.17-26.84.43,2.56-12.68,3.68-25.36,1.2-29.47-4.36-14.91-95.39-21.33-97.44-9.85-2.14,6-3.16,18.5-1.71,31.61-37.18-4.8-98.46-12.51-111.97-13.96-7.71-.39-15.36,1.45-22.05,5.31-4.02,2.31-7.78,5.57-10.34,10.19C.7,43.66-.49,49.31.19,55.82l10.26-1.2c-.6-4.54.34-7.97,1.71-10.54,1.54-2.57,3.85-4.71,6.67-6.34,5.81-3.43,12.82-4.28,15.9-3.94,13.68,1.46,77.95,9.51,114.87,14.22h0Z"/>
          <path class="cls-1" d="M207.89,2.02c-9.15-1.2-18.8-1.88-27.52-1.97l-34.27,47.55,3.5.43c1.62,6.85,4.02,13.28,7.44,18.68L207.89,2.02h0ZM237.46,8.71c-5.96-2.19-12.12-3.82-18.38-4.88l-56.16,69.82c2.22,1.88,4.7,3.43,7.44,4.54,2.05.77,4.1,1.37,6.24,1.97L237.46,8.62v.09ZM321.91,37.4c.85-11.14.6-21.59-.26-25.53l-45.3,56.28.85,2.31c1.28,2.23,5.81,4.63,11.54,5.83l33.16-38.89Z"/>
        </g>
      </g>
    </g>
  </g>
</svg>