<?xml version="1.0" encoding="UTF-8"?>
<svg id="Layer_2" data-name="Layer 2" xmlns="http://www.w3.org/2000/svg" viewBox="0 0 173.15 97.8">
  <defs>
    <style>
      .cls-1 {
        fill: #d1d3d4;
      }

      .cls-1, .cls-2 {
        stroke-width: 0px;
      }

      .cls-2 {
        fill: #fff;
      }
    </style>
  </defs>
  <g id="Layer_1-2" data-name="Layer 1" shape-rendering="auto">
    <g>
      <path class="cls-2" d="M126.29,26.65c8.03.17,15.64-2.14,22.22-8.98,3.42-3.59,7.01-5.56,11.97-2.57,11.88,7.44,14.62,25.82,11.45,38.13-4.29,13.52-13.71,24.82-26.24,31.46-32.65,19.15-57.78,14.88-91.28,2.57C28.08,77.7-7.56,58.29,1.41,24.94,12.7-16.35,60.9,3.57,88.08,14.68c11.54,4.7,25.3,11.54,38.21,11.97h0Z"/>
      <path class="cls-1" d="M93.55,97.45l-5.13-.68,19.4-74.13,4.87,1.62-19.06,73.19h-.09ZM161.85,71.63c-1.37,1.59-2.83,3.1-4.36,4.53l-11.11-56.43,2.22-2.05c.68-.77,1.45-1.45,2.22-2.05l11.03,56.09v-.09ZM50.65,1.86l-27.69,69.77c-1.46-1.01-2.88-2.06-4.27-3.16L45.52.92l5.13.94Z"/>
    </g>
  </g>
</svg>