<?xml version="1.0" encoding="UTF-8"?>
<svg id="Layer_2" data-name="Layer 2" xmlns="http://www.w3.org/2000/svg" viewBox="0 0 361.74 375.16">
  <defs>
    <style>
      .cls-1 {
        fill: rgba(0, 0, 0, .2);
      }

      .cls-1, .cls-2, .cls-3, .cls-4 {
        stroke-width: 0px;
      }

      .cls-2 {
        fill-rule: evenodd;
      }

      .cls-2, .cls-4 {
        fill: #71472d;
      }

      .cls-3 {
        fill: rgba(0, 0, 0, .3);
      }
    </style>
  </defs>
  <g id="Layer_1-2" data-name="Layer 1" shape-rendering="auto">
    <g>
      <g>
        <path class="cls-2" d="M262.96,79.61l.77.86.68-.69c17.78,3.26,31.97,9,37.61,13.54,5.43,4.75,11.23,9.05,17.35,12.85,6.32,15.13,10.88,30.94,13.59,47.12,3.42,21.25,2.56,46,1.71,55.68,1.28,1.03,2.65,1.97,4.19,3,4.27,3,9.15,6.43,15.38,12.42,7.38-12.21,9.42-26.93,5.64-40.69-1.2-5.48-3.42-11.05-6.07-17.65-5.56-13.45-12.82-31.61-16.58-63.74-3.42-28.96-27.35-72.39-54.7-81.81-21.88-7.54-39.06-3.17-43.59,0-47.01-39.41-119.66-11.99-139.32,0-9.23,5.57-16.67,13.71-24.53,22.36-9.12,10.98-19.87,20.48-31.88,28.18-24.79,14.56-29.92,51.4-24.79,76.24s7.69,45.4-5.13,61.68-19.66,40.26-5.13,68.53c11.62,22.62,8.21,41.98,5.13,48.83,14.87,13.71,47.27,24.84,79.06,32.9,1.54.43,1.97-4.03,2.31-8.57.43-4.37.85-8.82,2.39-8.48l1.37,1.97.6,3.08c1.11,5.65,2.82,14.48,12.99,16.71,33.08,7.37,61.11,11.22,61.11,11.22,11.2-19.19-1.97-45.83-13.76-69.56-6.15-12.34-11.88-23.9-13.68-33.24-2.82-15.51,2.99-26.64,10.51-40.86,7.41-13,13.1-26.91,16.92-41.38,3.85-15.59,2.82-28.27,1.79-40.52-1.45-18.16-2.91-35.55,11.62-60.57,23.5-13.19,52.82-13.54,76.41-9.42Z"/>
        <path class="cls-4" d="M348.69,319.47c1.03,4.97,2.48,16.45,0,22.27-6.32,1.11-21.11,3.08-29.06,1.71,5.47-3.26,18.8-12.68,29.06-23.99Z"/>
      </g>
      <path class="cls-3" d="M264.41,79.78c17.78,3.26,31.97,9,37.61,13.54,5.43,4.75,11.23,9.05,17.35,12.85-1.44-3.31-3.01-6.57-4.7-9.77-9.4-17.65-22.39-30.5-39.4-25.36-2.67,1.15-5.04,2.91-6.92,5.14l-3.93,3.6ZM191.93,80.46c25.47-37.69,57.44-16.79,70.94-.86-23.5-4.11-52.82-3.77-76.33,9.42,1.54-2.74,3.42-5.65,5.38-8.57Z"/>
      <path class="cls-1" d="M156.03,83.03c19.83-34.27,61.8-40.01,80.34-38.55-100-10.28-109.4,58.25-109.4,84.81,0,21.25,2.56,33.41-4.27,45.4-16.97,18.26-21.35,44.93-11.11,67.68-4.27-22.27,4.27-38.55,23.08-59.97s-3.42-56.54,21.37-99.37ZM126.97,316.05c-12.31-12.34-15.38-23.99-15.38-28.27,39.66,20.56,31.88,52.51,23.08,65.96,2.56-7.45,4.62-25.36-7.69-37.69ZM67.14,174.7c7.52-17.13,5.98-37.44,4.27-45.4,0,25.7-16.24,53.11-34.19,85.67-14.36,26.04,5.98,56.54,17.95,68.53,2.56-13.71-8.55-23.99-9.4-48.83s11.97-38.55,21.37-59.97ZM350.05,220.96c4.44-14.05,1.28-33.84-.85-41.98,0,14.05-2.56,31.01-3.85,37.69l4.7,4.28Z"/>
    </g>
  </g>
</svg>