<?xml version="1.0" encoding="UTF-8"?>
<svg id="Layer_2" data-name="Layer 2" xmlns="http://www.w3.org/2000/svg" viewBox="0 0 115.16 66.39">
  <defs>
    <style>
      .cls-1 {
        fill: #71472d;
      }

      .cls-1, .cls-2 {
        stroke-width: 0px;
      }

      .cls-2 {
        fill: #2a1200;
      }
    </style>
  </defs>
  <g id="Layer_1-2" data-name="Layer 1" shape-rendering="auto">
    <g>
      <path class="cls-2" d="M41.39,60.42c-10.65-7.7-24.35-9.83-36.84-5.73-.17,0-.34-.17-.17-.34,18.38-20.95,32.31-5.22,37.27,5.81,0,.17-.17.34-.26.26h0ZM108.14,53.07c0,6.84-3.08,14.11-10.94,13.25-6.67-.68-8.29-9.41-8.29-13.68,0-7.44,3.76-14.54,9.23-14.54,5.81,0,10,8.12,10,14.96Z"/>
      <path class="cls-1" d="M35.06.4C22.99-1.37,10.81,2.84,2.41,11.68c-2.74,2.91-3.42,7.95-.6,11.12,2.56,3.08,7.35,3.93,10.26.86l2.74-2.57c.34-.26,1.11-.68,1.37-1.03l.43-.34c1.63-1.01,3.35-1.86,5.13-2.57.43,0,1.03-.34,1.45-.43,1.76-.5,3.56-.85,5.38-1.03h1.71l3.68.43c3.76.6,7.69-3.08,7.86-7.18.09-4.53-2.74-7.95-6.84-8.55h.09ZM113.61,13.82c-4.12-5.72-10.32-9.59-17.27-10.77-1.79-.34-3.93.34-5.38,1.54-1.52,1.37-2.47,3.26-2.65,5.3-.09,2.05.26,4.28,1.54,5.81,1.18,1.59,2.92,2.66,4.87,2.99l1.03.26c.85.34,1.79.68,2.74,1.2,1.03.68,1.97,1.45,2.82,2.31l.85,1.11c1.19,1.62,2.97,2.7,4.96,2.99,1.71.17,3.93-.34,5.3-1.71,1.45-1.28,2.56-3.08,2.74-5.13.09-2.14-.34-4.28-1.54-5.99v.09Z"/>
    </g>
  </g>
</svg>