<?xml version="1.0" encoding="UTF-8"?>
<svg id="Layer_2" data-name="Layer 2" xmlns="http://www.w3.org/2000/svg" viewBox="0 0 83.5 84.71">
  <defs>
    <style>
      .cls-1 {
        fill: #ffcf33;
        stroke: #231f20;
        stroke-miterlimit: 10;
        stroke-width: 2px;
      }
    </style>
  </defs>
  <g id="Layer_1-2" data-name="Layer 1">
    <g>
      <path class="cls-1" d="M50.02,54.4c-21.52,10.12-23.04,25.05-23.73,27.72v.04s-.01-.03-.01-.04c-.69-2.67-2.21-17.6-23.73-27.72,20.41-7.77,23.48-26.28,23.71-28,.01-.03.01-.05.01-.08.01.03.01.05.01.08.01,0,0,.01,0,.01.26,1.78,3.35,20.23,23.72,27.99Z"/>
      <path class="cls-1" d="M80.94,40.47c-13.38,6.29-14.33,15.58-14.76,17.24v.02s0-.02,0-.02c-.43-1.66-1.37-10.95-14.76-17.24,12.69-4.84,14.61-16.35,14.75-17.42,0-.02,0-.03,0-.05,0,.02,0,.03,0,.05,0,0,0,0,0,0,.17,1.11,2.09,12.58,14.76,17.41Z"/>
      <path class="cls-1" d="M54.84,15.82c-8.14,3.83-8.72,9.48-8.98,10.49h0s0,0,0,0c-.26-1.01-.83-6.66-8.98-10.49,7.72-2.94,8.88-9.94,8.97-10.59,0,0,0-.02,0-.03,0,0,0,.02,0,.03,0,0,0,0,0,0,.1.67,1.27,7.65,8.98,10.59Z"/>
    </g>
  </g>
</svg>