<?xml version="1.0" encoding="UTF-8"?>
<svg id="Layer_2" data-name="Layer 2" xmlns="http://www.w3.org/2000/svg" viewBox="0 0 433.42 770">
  <defs>
    <style>
      .cls-1 {
        fill: #9dbee4;
      }

      .cls-1, .cls-2, .cls-3, .cls-4, .cls-5, .cls-6 {
        stroke: #231f20;
        stroke-miterlimit: 10;
        stroke-width: 8px;
      }

      .cls-2 {
        fill: #4fb749;
      }

      .cls-3 {
        fill: #bf3c95;
      }

      .cls-4 {
        fill: #2db24a;
      }

      .cls-5 {
        fill: #e569a6;
      }

      .cls-6 {
        fill: #afdedd;
      }
    </style>
  </defs>
  <g id="_Слой_1" data-name="Слой 1">
    <g>
      <path class="cls-4" d="M257.49,147.91l71.01-117.39c37.07-61.28,129.3-5.24,92.34,55.86l-71.01,117.39-92.34-55.86Z"/>
      <g>
        <polygon class="cls-6" points="270.96 229.89 198.98 348.86 117.34 348.86 228.89 164.46 270.96 229.89"/>
        <polygon class="cls-1" points="348.44 236.78 280.64 348.86 198.98 348.86 270.96 229.89 348.44 236.78"/>
      </g>
      <path class="cls-5" d="M84.88,665.2c-12.67-18.64-26.87-37.32-29.97-55.22-3.1,17.9-17.31,36.58-29.97,55.22-91.32,134.36,151.32,134.43,59.94,0Z"/>
      <rect class="cls-2" x="228.55" y="109.95" width="112.49" height="194.52" transform="translate(-39.91 343.63) rotate(-58.83)"/>
      <g>
        <rect class="cls-4" x="182.22" y="158.35" width="74.79" height="21.06" transform="translate(-38.56 269.37) rotate(-58.83)"/>
        <rect class="cls-4" x="214.55" y="177.87" width="74.79" height="21.06" transform="translate(-39.66 306.45) rotate(-58.83)"/>
        <rect class="cls-4" x="247.16" y="197.23" width="74.79" height="21.06" transform="translate(-40.49 343.71) rotate(-58.83)"/>
        <rect class="cls-4" x="279.24" y="216.96" width="74.79" height="21.06" transform="translate(-41.9 380.66) rotate(-58.83)"/>
        <rect class="cls-4" x="311.61" y="236.54" width="74.79" height="21.06" transform="translate(-43.04 417.8) rotate(-58.83)"/>
      </g>
      <path class="cls-3" d="M117.34,348.86l-68.43,113.14c-5.61,9.29-2.64,21.39,6.66,27.02,9.29,5.61,12.27,17.71,6.65,27l-33.43,55.26,52.23,31.59,33.41-55.26c5.63-9.29,17.73-12.27,27.01-6.64,9.3,5.63,21.39,2.64,27.02-6.64l112.18-185.45H117.34Z"/>
    </g>
  </g>
</svg>