<?xml version="1.0" encoding="UTF-8"?>
<svg id="Layer_2" data-name="Layer 2" xmlns="http://www.w3.org/2000/svg" version="1.1" viewBox="0 0 117.4 68.7">
  <defs>
    <style>
      .cls-1 {
        fill: #71472d;
      }

      .cls-1, .cls-2 {
        stroke: #231f20;
        stroke-miterlimit: 10;
        stroke-width: 2px;
      }

      .cls-2 {
        fill: #2a1200;
      }
    </style>
  </defs>
  <g id="Layer_1-2" data-name="Layer 1-2" shape-rendering="auto">
    <g>
      <path class="cls-2" d="M36,52.6c0,9.7-5.1,17.5-15.6,15.9-7.6-2-12.6-7.3-12.6-17.5s6.3-17.5,12.6-17.5,15.6,9.5,15.5,19.2c0,0,0,0,0,0ZM107.6,52.4c0,6.5-2.9,13.5-10.4,12.6-6.4-.6-7.9-9-7.9-13,0-7.1,3.6-13.9,8.8-13.9s9.5,7.7,9.5,14.3h0Z"/>
      <path class="cls-1" d="M40.7,6.7C30.2,1.6,17.9,2.1,7.7,7.8c-3.3,1.9-5.4,6.3-3.7,10,1.5,3.4,5.7,5.6,9.1,3.7,1.1-.6,2.1-1.1,3.3-1.6.3-.2,1.2-.3,1.5-.6l.5-.2c1.7-.5,3.5-.8,5.3-.9h1.5c1.7,0,3.4.3,5.1.6l1.6.5c1.1.3,2.1.8,3.3,1.3,3.3,1.6,7.8-.6,9.1-4.3,1.4-4.1-.2-8-3.7-9.7,0,0,0,0,0,0ZM111.2,10.2c-6-3.3-13-4.1-19.2-2.2-1.6.5-3.3,2-3.9,3.6-.8,1.6-.8,3.9-.2,5.7.7,1.9,2,3.4,3.7,4.3,1.7.9,3.6,1.1,5.4.6l.9-.2h2.9c1.1,0,2.3.4,3.4.8l1.1.5c1.6.9,3.7,1.1,5.5.6,1.6-.5,3.3-1.9,3.9-3.6.6-1.6.9-3.7.2-5.6-.8-1.9-2-3.4-3.7-4.4h0Z"/>
    </g>
  </g>
</svg>