<?xml version="1.0" encoding="UTF-8"?>
<svg id="Layer_2" data-name="Layer 2" xmlns="http://www.w3.org/2000/svg" viewBox="0 0 124.43 123.8">
  <defs>
    <style>
      .cls-1 {
        fill: #a5d59d;
      }

      .cls-1, .cls-2, .cls-3, .cls-4, .cls-5 {
        stroke-width: 0px;
      }

      .cls-2 {
        fill: #dd5926;
      }

      .cls-3 {
        fill: #62aadd;
      }

      .cls-4 {
        fill: #b41e3a;
      }

      .cls-6 {
        opacity: .3;
      }

      .cls-5 {
        fill: #fff;
      }
    </style>
  </defs>
  <g id="Layer_1-2" data-name="Layer 1">
    <polygon class="cls-4" points="0 0 0 123.8 124.43 118.18 123.8 0 0 0"/>
    <polygon class="cls-2" points="17.3 16.89 16.05 109.01 112.34 106.93 111.5 15.22 17.3 16.89"/>
    <polygon class="cls-5" points="21.98 20.69 19.38 105.26 107.9 102.09 107.14 19.18 21.98 20.69"/>
    <polygon class="cls-3" points="31.91 28.83 32.91 94.99 96.07 92.98 95.06 30.83 31.91 28.83"/>
    <g>
      <path class="cls-1" d="M64.38,48.81c-.5-3.83-6.5-9.5-10.67-7-4.33,2.67,0,10.17,2,13-3.5-.67-10.33,4.33-8.83,7.83,1.67,4.17,8.5,2.17,11.5,1-2.17,3.33-2,10.67,3.5,9.83,5.5-1,5.67-7.17,7-11.17,2.17,5.17,9.83,6.33,12.17.67,2.17-5-4.5-7.5-8.5-8.67,2.67-1,5.12-3.18,5.67-6.17.33-1.83-.03-4.12-3-5.33-4.5-1.83-8,2-10.5,5.67"/>
      <path class="cls-1" d="M64.38,82.77c3.5-5.33,8.83-7.5,15-5.83-2.33,4.83-9.83,9.83-15,5.83"/>
      <path class="cls-1" d="M64.15,87.85c-1.17-8.88-9.83-9.13-13.5-8.96.5,3.83,8.5,12.67,13.33,9l.17-.04Z"/>
      <polygon class="cls-1" points="63.51 72.12 63.94 93.93 65.19 93.93 64.44 71.68 63.51 72.12"/>
    </g>
    <g class="cls-6">
      <polygon class="cls-5" points="95.06 30.83 32.38 74.64 31.91 28.83 95.06 30.83"/>
    </g>
  </g>
</svg>