<?xml version="1.0" encoding="UTF-8"?>
<svg id="Layer_2" data-name="Layer 2" xmlns="http://www.w3.org/2000/svg" viewBox="0 0 333.58 368.63">
  <defs>
    <style>
      .cls-1 {
        fill: #71472d;
      }

      .cls-1, .cls-2 {
        stroke: #231f20;
        stroke-miterlimit: 10;
        stroke-width: 2px;
      }

      .cls-2 {
        fill: #000;
      }
    </style>
  </defs>
  <g id="Layer_2-2" data-name="Layer 2">
    <g id="Layer_1-2" data-name="Layer 1-2" shape-rendering="auto">
      <g>
        <path class="cls-1" d="M262.04,52.71c-27.16,37.7-88.59,115.18-173.01,142.82-6.69-12.63-20.02-20.29-34.26-19.68-22.98.42-31.34,17.17-31.34,17.17,0,0-26.74,44.81,35.1,73.3,17.13,3.35,22.57,3.35,36.36-2.51,9.36,7.28,38.95,31.99,49.31,36.02-2.68,14.07-7.35,49.25-1.01,65.34-12.12,1.09-41.63,7.28-65.03-5.45-2.34-14.33-4.43-33.09-.75-40.21-4.43,7.12-12.37,23.62-12.37,33.09-13.38-4.61-43.12-17.43-55.16-31.83C-8.75,232.81-15.44,19.63,173.45,1.61c16.54-1.93,58.84-.25,86.92,18.85,35.1,23.88,52.66,55.71,59.34,87.54-14.37-6.7-45.97-27.14-57.67-55.29h0ZM330.99,352.6c-5.68-8.04-2.34-44.56,0-56.96-23.4,19.68-37.2,29.32-85.25,30.58,8.36,12.57,40.95,17.17,44.72,18.85l6.69-4.61v6.7c11.09,2.89,22.42,4.71,33.85,5.45h0Z"/>
        <path class="cls-2" d="M229.95,41.49c15.04-1.34,21.98,6.86,21.98,6.86-11.62,1.34-35.77,19.85-35.86,19.85,17.3-2.35,39.04-8.21,39.04-8.21-.25,1.93-1.58,4.35-3.34,7.04,4.34-5.19,7.94-10.05,10.28-14.33,2.74,6.39,6.31,12.39,10.61,17.85-.74-5.22-2.33-10.28-4.68-14.99,0,0,11.36,5.87,12.87,10.64,0,0-3.76-15.08-15.38-26.8,0,0,7.28-1.26,13.2,2.85,0,0-9.45-14.07-21.73-21.61h2.76l-1.42-1.01c-10.86-7.45-23.65-12.07-36.1-14.91-7.69,2.43-12.96,9.04-12.96,9.04,10.37-1.67,26.74,5.52,26.74,5.52-15.46-1.67-34.94,11.98-34.94,11.98,15.48-5.53,32.63-3.65,46.55,5.11-6.93-.67-17.55,5.11-17.55,5.11h-.09.02Z"/>
        <path class="cls-2" d="M203.54,89.57c-11.7,14.82-49.81,50.76-108.65,76.23,18.64-11.72,66.53-43.4,108.65-76.23ZM48.08,165.79c34.1-72.38,103.39-113.34,133.73-124.81-78.24,13.41-130.38,90.72-146.69,127.74,3.01-1.34,9.87-2.51,12.96-2.93ZM30.53,253.34c1.67,2.09,6.52,5.36,9.19,6.7-1.09,18.43-2.68,54.04-1.84,69.78-1.67-15.83-3.76-42.56-3.18-57.21-3.09,11.14-8.27,14.91-4.6,61.15-3.93-29.9-9.94-62.33.42-80.42h0ZM310.09,311.97c2.34-1.01,6.27-3.77,7.94-5.03-3.01,5.03-1.84,30.32-.83,42.3-2-1.67-3.34-7.96-3.76-10.89-1.34,4.35-3.93,4.61-3.34,10.89-3.68-8.38-.42-23.88,0-37.28h0ZM122.04,305.27c-4.01,36.52-2.09,46.5,1.25,61.98h-16.71c-6.01-29.48,9.36-43.56,15.46-61.99h0Z"/>
      </g>
    </g>
  </g>
</svg>