<?xml version="1.0" encoding="UTF-8"?>
<svg id="Layer_2" data-name="Layer 2" xmlns="http://www.w3.org/2000/svg" version="1.1" viewBox="0 0 608 607">
  <defs>
    <style>
      .cls-1 {
        fill: #e67050;
      }

      .cls-1, .cls-2, .cls-3, .cls-4 {
        stroke-width: 0px;
      }

      .cls-2 {
        fill: #5c747e;
      }

      .cls-3 {
        fill: #e9c46d;
      }

      .cls-4 {
        fill: #274754;
      }
    </style>
  </defs>
  <path class="cls-2" d="M342,0c0,.3-.1.7-.2,1-1.9,1.8-4.3,1.5-6.6,1.5-20.8,0-41.6,0-62.5,0-2.3,0-4.7.2-6.6-1.5,0-.4-.1-.7-.2-1h76Z"/>
  <path class="cls-2" d="M341.9,606c0,.3.1.7.2,1h-76l.2-1c1.9-1.8,4.3-1.5,6.6-1.5,20.8,0,41.6,0,62.5,0,2.3,0,4.7-.2,6.6,1.5Z"/>
  <path class="cls-4" d="M341.9,606h-75.7v-8.9h-38.1v-9.1h-27.9v-9.8h-28.9v-9.1h-19.1v-10.1h-8.9v-8.8h-18.6c-1.2-3.4-.2-6.6-.9-9.8-2.6-1.2-5.5,0-8.3-.8-1.1-2.6.1-5.5-.8-8.6h-9.6v-9.9h-8.4c-1.3-2.9-.2-5.8-.9-8.7-2.9-1.1-6.1,0-9.6-.7v-9c-3.1-1.4-6-.1-9.1-1.1v-8.5h-9.9v-9.4c-2.9-1.3-5.8-.2-8.9-.9v-17.5h-10.1v-10.1h-9.1v-18.9h-9.8v-27.5c-3.1-1.3-6-.2-9.1-.9v-28.6h-10.1v-28.1H1.2v-84.9h8.5v-37.9h10.1v-29.1h9.1v-27.9h9.8v-18.5c3.1-1.4,6-.2,8.8-.9,1.2-2.6,0-5.5.8-8.6h9.5v-19.1h8.9v-9.4c3.2-1.3,6.4-.2,9.9-.9v-8.1c3.1-1.4,6-.2,9.1-1.1v-9.5h10.1v-8.9h8.4c1.3-3.2.2-6.4.8-9.7,2.9-1.1,6.1,0,9.3-.7,1.2-2.6,0-5.5.8-8.3,2.6-1.1,5.5,0,8.6-.8v-9.6h18.9v-8.4c2.9-1.3,5.8-.2,8.9-.9v-9.6h18.6c1.3-3.1.1-6,1.1-9.1h18.6v-10.1h37.9v-8.8h38.3V1h75.7v8.9h47.1v9.1h28.9v9.8h18.5c1.3,3.1.1,6,1,9.1h18.5v10.1h17.9v8.4c3.2,1.3,6.4.2,9.7.8,1.1,2.9,0,6.1.7,9.3,2.6,1.2,5.5,0,8.3.8,1.1,2.6-.1,5.5.9,8.6h9.6v9.9h8.4c1.3,2.9.2,5.8.9,8.7,2.9,1.1,6.1,0,9.6.7v9.6h9.1v9.1h9.9v9.4c2.9,1.3,5.8.2,8.7.9,1.1,2.6,0,5.4.7,8.6h9.6v19.1h9.1v18.9h9.8v18.5c3.1,1.3,6,.2,9.1.9v27.6h10.1v48.1h8.9v84.9h-8.5v37.9h-10.1v28.1h-9.1v18.9h-9.8v18.5c-3.1,1.4-6,.2-9.1,1v9.5h-10.1v18.1h-8.9v9.4c-3.2,1.2-6.4.2-9.7.8-1.2,2.6,0,5.5-.7,8.3-2.6,1.2-5.5,0-8.6.9v9.5h-10.1v8.9h-8.4c-1.3,3.2-.2,6.4-.8,9.7-2.9,1.1-6.1,0-9.3.7-1.2,2.6,0,5.5-.8,8.3-2.6,1.1-5.5-.1-8.6.8v9.6h-18.9v8.4c-2.9,1.4-5.8.2-8.8.9-1,2.8,0,6-.7,9.5h-18.6v9.1h-29.1v10.1h-27.9v8.8h-38.3v9.2h0Z"/>
  <path class="cls-1" d="M492.9,171v8.4c-2.8,1.4-5.7,0-8.7,1.1v17.9c-3.5,1.2-6.8.3-10,.8-.2-.2-.4-.4-.6-.6-1.5-3.1-.8-6.5-.9-9.8-.1-2.1.2-4.3-.8-6.1-1.4-1.1-2.6-1-4-.4-2.1,2.1-.6,5.6-3,8-1.5,1.5-4.2.8-6.3,2.2-1.6,2.6-.8,5.7-1,8.6-.2,2.8.4,5.7-1.4,8-2.2,1.8-5,1-7.3,2.2-1.9,1.7-.9,4.8-2.9,7-2.8,1.6-5.9,1.8-9-.1-2.5-6.3-1.4-12.6-.6-18.4,2.3-2.5,5-1.8,7.3-3.2,2.5-5.1-.7-11.4,2.2-16.3,2.4-2.2,5.6-1,8.2-3,.9-4.4,1-9.1-.2-13.9-4.9-1.2-9.5-1-14.4-.2-2.3,9,.8,18.4-1.9,26.6-2.6,2.2-5.4,1.4-7.7,2.7-1.9,1.8-.9,4.8-3,6.9-1.6,1.5-4.3.8-6.5,2.4-2.2,5.1.7,11.1-1.9,16-2.4,2.3-5.5,1.3-7.8,2.8-1.7,2.1-.6,5.2-2.5,7.6-1.6,1.7-4.3,1-6.6,2.5-2.5,5.1.7,11.4-2.1,16.2-2.5,2.1-5.3,1.3-7.6,2.5-1.9,1.8-.8,4.9-2.8,6.7-1.8,1.7-4.5,1-6.6,2.5-1.5,2.5-.8,5.4-.9,8.2-.1,2.8.3,5.7-1.1,7.9-2.4,2.3-5.5,1.2-7.8,2.8-1.2,1.6-1.2,3.3-.1,5,2.3,1.6,5.4.5,7.5,2.3,1.8,1.8,1,4.5,2.4,6.5,1.3,1,2.6,1,4.3,0,2.3-5.2-.6-11.2,2-16.1,2.3-2.3,5.4-1.2,7.9-2.8,2.4-5.1-.6-11.1,2-16.1,1.9-2.1,4.6-1.4,6.7-2.7,1.8-1.8.8-4.9,3-7,3.1-1.4,6.6-1.9,10,.5,1.9,6.2,1.9,12.3,0,18.5-2,2.6-5.3,1.3-8,2.8-2.3,5,.5,10.9-1.9,16.1-1.7,2.6-4.9,1.3-7.1,2.7-1.2,1.5-1,3-.4,4.5,1.7,1.3,3.2,1.1,4.7.2,1.7-2.1.3-5.4,2.7-7.2,2.1-1.7,4.9-.5,7.3-2.1,2.4-5.1-1-11.3,2.3-16.5,1.7-1.9,4.4-1.1,6.5-2.3,1.9-2.2.4-5.6,2.5-7.8,2.1-2,5.1-.8,7.7-2.3,2.4-5.2-.7-11.3,2.1-16.6,1.9-1.9,4.8-.9,6.8-2.2,1.6-2,.7-4.7,2.6-7,2.7-1.7,6-1.6,9.3-.3.2.2.4.4.6.6v18.8h-10v18.9c-3.2.2-5.8.3-8.4.4-1.5,2.6,0,5.6-1.3,8.7h-9.3v18.9c-3.2.2-5.8.3-8.5.4-1.5,3,0,6.3-1.2,9.6h-8.7c-1.2,3.1-.6,5.8-.5,9h36.9c1.8,2.9.3,5.9,1.5,9h36.6c1.7,3.3.2,6.6,1.4,10,2.5.1,5.1.3,7.8.4,1.6,2.5,0,5.5,1.1,8.3,2.8,1.4,6.1-.2,9.5,1.1v8.6c3,1.7,6,0,8.9,1.4.1,2.5.2,5.1.4,7.8,3,1.5,6.3-.1,9.7,1.2v8.6c3,1.7,6,.1,9,1.5v17.6c3.3,1.7,6.6,0,9.8,1.3v27c-2.9,1.2-6.1,0-9.5.9v17.7c-3,1.8-6,.2-9,1.5v17.5c-3.3,1.8-6.6.1-9.7,1.3-1.1,2.8,0,5.9-.8,9-2.6,1.1-5.3.4-8.1.4-1.3-3.1,0-6.1-.9-9.2-2.8-1.5-6.1.1-9.5-1.1v-17.7c-3.1-1.4-5.8-.7-8.6-.7-1.5,3.1.1,6.4-1.2,9.8h-8.6c-1.6,3,0,6-1.5,9h-16.6c-1.6,3.3,0,6.6-1.4,10h-8.6c-1.7,3-.1,6-1.4,8.9-2.5.1-5.1.2-7.7.4-1.5,2.7,0,5.7-1.3,8.7h-9.3v47.9c-3.2.2-5.8.3-8.5.4-1.6,2.6,0,5.6-1.3,8.7h-17.6c-1.8,3.3-.1,6.6-1.4,10h-17.5c-1.9,2.9-.2,6-1.5,8.9h-47.1v-37.2c2.8-1.2,5.9,0,9.4-.9v-26.7c3.1-1.7,6.2-.1,9.2-1.5v-17.6c3.3-1.6,6.6,0,9.8-1.3v-46.4h-9.6v-28.9c-3.1-.1-5.9-.3-8.9-.4-.1-2.9-.2-5.5-.4-8.1-3-1.5-6.3,0-9.7-1.2v-8.6c-3-1.7-6-.1-8.9-1.4-.1-2.5-.2-5.1-.4-7.8-3-1.5-6.3,0-9.7-1.2v-8.7c-3-1.4-5.9-.3-8.6-1-1.2-2.6,0-5.4-.8-8.1-2.5-1.5-5.5,0-8.2-1.1-1.2-2.8,0-5.9-.9-9.4h-17.8c-1.5-3.1-.3-5.8-1.2-9h-47.3v-18.6c2.7-1.5,6,0,9.1-1,1.4-2.5-.2-5.5,1.1-8.4,2.5-.1,5.1-.2,7.8-.4,1.4-3.1,0-6.4,1.1-9.7h8.7c1.7-3,.1-6,1.4-8.9,2.5-.1,5.1-.3,8.3-.4v-18.5h65.5c1.5,2.5-.1,5.5,1.2,8.4h8.9c1.2-2.5,0-5.5.8-8.1,2.6-1.2,5.4,0,8.5-1v-17.9c3.4-1.4,6.5-.2,9.6-1,1.5-2.8-.1-6.1,1-9.2,2.5-1.2,5.2,0,8.4-.9v-17.8c3.4-1.4,6.5-.3,9.6-1,1.6-2.4,0-5.4,1.2-8.5,2.5-.1,5.3-.3,8.4-.5v-18c3.3-1.6,6.6,0,10-1.4v-17.6c3-1.7,6,0,9-1.5v-8.6c3.3-1.7,6.6,0,10-1.4v-17.2c3.1-.1,5.9-.3,9-.4v-18.2c3.6-1,6.9-.5,10.2-.4,1.7,1.7,1.1,4.1,2.1,6.1,1.8,1.9,4.9.7,6.8,2.5,2.1,2.1.9,5.1,2.3,7.7,2.6,1.8,5.7.8,8.6,1,2.8.2,5.7-.5,8,1.2,1.9,2,1.1,4.7,2.4,6.8,1.8,1.7,4.6.6,6.5,2.2,2.1,1.8,1.2,4.8,2.6,6.9,2.2,1.7,5.3.4,7.6,2.2,2.2,2,.8,5.4,2.4,7.8,1.9,1.5,4.7.5,6.4,2.4h0Z"/>
  <path class="cls-3" d="M171,322v28.8h9.1c1.7,2.9.2,5.9,1.2,8.7,2.5,1.2,5.5,0,8.5.9v9.4h18.4c1.6,3.1.1,6.1,1.3,9.1h17.8c1.5,3.3.1,6.5,1.2,10.1h18.4v8.9h18.9v9.4c3.3,1.6,6.5.2,9.7,1.1,1.3,2.5-.1,5.5,1,8.5h17.8c1.4,3.3.2,6.5.9,9.6,2.6,1.4,5.6-.1,8.6,1.1v17.6c2.9,1.7,5.9.2,8.8,1.3v46.4h-8.5v18.9c-3.2.2-6,.3-9.1.5v8c-3.3,1.5-6.6,0-9.9,1.2v17.7c-2.9,1.7-5.9.2-8.7,1.2-1.3,2.9.2,6.1-1,9.5h-17.6c-1.7,2.9-.2,5.9-1.3,8.8h-37.4v-8.5h-28.4c-1.5-3.5,0-6.8-1.2-10.1h-8.1v-19.1h37.6v-8.3c2.9-1.6,5.9,0,8.8-1.2v-28c-2.5-1.3-5.4,0-8.6-.9v-17.4h-9.4c-1.5-3.3-.1-6.5-1.1-9.7-2.6-1.3-5.5.2-8.5-1v-8.3h-19.1v-10.1h-9.3c-1.6-2.9-.1-5.9-1.3-8.9h-26.8c-1.5-3.3-.2-6.5-1.2-10.1h-27.4v-8.9h-18.4c-1.5-3.5,0-6.7-1.3-10.1h-17.7c-1.7-2.9-.2-5.9-1.4-9.1h-9.3v-18.3c-2.9-1.6-5.9-.1-8.8-1.3v-47.4h8.6v-27.9h9.9v-18.4c3.1-1.6,6.1-.1,9.1-1.4v-17.7c3.3-1.5,6.6-.1,9.7-1.1,1.3-2.6-.2-5.5,1.1-8.5h8.3v-19.1h10.1v-9.3c2.9-1.6,5.9-.1,8.9-1.3v-7.7c3.3-1.6,6.5-.2,9.7-1.1,1.3-2.9-.2-6.1,1-9.5h7.7c1.7-2.9.2-5.9,1.2-8.7,2.5-1.2,5.5,0,8.5-.9v-9.2h28.7c1.2,2.9-.2,6.2,1,9.5h7.7c1.6,2.9.1,5.9,1.4,9.1h9.4v9.3c2.9,1.6,5.9.1,8.9,1.3v8.2h19.1v19.1h9.4c1.4,3.3.2,6.5.9,9.6,2.6,1.3,5.6-.1,8.5,1.1v27.5h-18.7c-.2-.2-.4-.4-.6-.6-1.2-2.8-1.1-5.5.1-8,2.2-2.6,5.6-1.2,8-2.9,1.1-1.7,1.1-3.4,0-5.1-2.3-1.5-5.4-.5-7.5-2.4-1.8-1.8-1-4.5-2.4-6.5-1.8-1.5-4.6-.8-6.7-2.6-1.9-1.8-.8-4.9-2.2-7.3-2.1-2-5.6-.5-7.7-2.7-1.6-1.8-1-4.5-2.6-6.8-4.5-1-9.2-1-13.5,0-1.7,2.3-1,4.8-2.4,6.6-1.8,2.2-4.7,1.3-6.9,2.8-1.7,2.1-.5,5.3-2.4,7.6-1.9,2-5,.9-7.4,2.3-1.9,1.8-.8,4.9-2.6,6.8-1.8,1.8-4.5,1-6.5,2.4-1.7,2.1-.6,5.3-2.5,7.6-1.9,2-5,.9-7.5,2.4-1.6,1.7-.8,4.4-2.3,6.3-1.7,2.2-4.8,1.3-7,2.9-2.2,5.1.6,11.1-1.9,16.1-2,2.1-4.7,1.3-7.4,2.6-.5,20.3-.6,40.7-.3,60.5,2.6,2.3,5.6,1.4,7.5,3.3,1.7,2.1.9,4.9,2.1,7.2,1.8,1.9,4.9.9,6.9,2.9,1.6,1.7.9,4.4,2.5,6.6,5.1,2.1,11.1-.6,15.9,1.8,2.4,2.4,1.3,5.5,2.8,7.9,1.6,1.3,3.3,1.1,5.4.2,1.1-4.5.8-9,.3-13.4-2.4-2.5-5.9-1-8.4-3.4-1.7-1.7-.6-4.8-2-7.1-1.8-1.6-4.6-.8-7.1-2.4-1.4-12.7-1.2-25.5-.6-37.7,3.7-2.3,6.6-2.4,9.5-1.1.2.2.4.4.6.6h0Z"/>
  <path class="cls-3" d="M331.8,161v18.9h-18.7v18.9h-18.1v9.9h-56.5c-1.3-2.9,0-6.2-1-9.7h-18.4v-8.5c-3.3-1.2-6.5-.2-10.1-1v-18.5h-8.7v-56.6c2.5-1.3,5.5.2,8.5-1v-7.8c3.3-1.5,6.5-.1,9.7-1.1,1.3-2.9-.2-6.2,1-9.5h17.7c1.7-2.9.2-5.9,1.2-8.7,2.6-1.3,5.5.2,8.5-1v-9.6h29.1c6.3-2.7,12.6-1.5,19.5-.5,1.8,10.2,1.4,19.9.4,29-2.8,2.8-5.9,1.6-8.1,3.1-1.1,1.2-.9,2.5-.5,3.7,1.5,1.5,3.4,1.3,5.2,1.3,7.8,0,15.6,0,23.5,0,2.5,0,5-.2,7,1.4,2,2.3,1,5.4,2.6,7.6,2,1.4,4.7.8,6.7,2.7,1.6,2.8,1.6,5.7.1,8.5-1.9,2.1-4.6,1.5-7.3,3.2-1,7.2-.7,14.9-.1,22.1,2.4,1.9,5.2,1.1,6.9,3h0Z"/>
  <path class="cls-1" d="M331.8,161h-8.4v-27.7c2.7-.2,5.3-.4,8.1-.6.8-2.8.6-5.3.2-7.9-2.6-1.6-5.4-.1-8-1.2-1.5-2.7,0-5.8-1.3-9.4h-36.8c-1-3.3-.5-5.9-.5-8.4,3.1-1.6,6.2-.1,9.5-1.3v-28.6h-18.7v-8.6h65.4c1.5,2.5,0,5.5,1.2,8.5h36.6c1.6,3.3.3,6.6,1.3,10.1h27.3c.2,3.2.3,5.8.4,8.4,3,1.5,6.3,0,9.5,1.2v9.3h-37c-1.4,3.1-.3,5.8-1.1,9h-17.9c-1.4,3.4-.2,6.5-1,9.6-2.8,1.4-6.1,0-9.6,1.1v18.3c-3.2.1-5.8.3-8.4.4-1.5,2.7,0,5.7-1.3,8.7h-9.1c-.2,3.3-.3,6.2-.4,9.1h0Z"/>
  <path class="cls-3" d="M492.9,171h-7.9c-2-3.1-.1-6.5-1.6-9.7-2.8-.2-5.7-.4-8.6-.5-1.6-2.6-.1-5.4-1.2-8-2.4-1.6-5.5,0-8.3-1.3-.2-2.6-.4-5.1-.6-8.2h-17.7c-1.9-3.3-.4-6.4-1.4-9.4-2.3-1.8-5.5.1-8.1-1.4-1-2.6-.3-5.5-.5-8.2h37c1.9,2.1,1.4,4.7,1.5,7.1.2,3.1-.5,6.3.7,9.3,5.4,2.4,11.5-1,16.6,2.4v28h0Z"/>
  <path class="cls-1" d="M492.9,143h-18.9v-18.9h18.9v18.9Z"/>
  <path class="cls-3" d="M200,294v9.9h-9.9v8.5c-3.2,1-6.2.3-9.1.6-.2-.2-.4-.5-.7-.7-1.6-6.2-1.2-12.3,0-18.7,6.6-1.6,12.8-1.8,19-.2.2.2.5.5.7.7h0Z"/>
  <path class="cls-3" d="M228,275v10h-19c-.2-.2-.4-.5-.7-.7-1.3-3.2-1.3-6.4.8-10,6.1-.9,12.5-2.1,18.8.7h0c0,0,0,0,0,0Z"/>
  <path class="cls-1" d="M474.1,199.1v19h-9c-.2-.2-.5-.5-.7-.7-1.6-6.1-1.3-12.2,0-18.2,3.4-1.9,6.4-2.4,9.5-.3l.2.2h0Z"/>
  <path class="cls-1" d="M465.1,218.1v10h-9l-.2-.2c-2.2-3.2-1.7-6.5-.2-9.9,3.1-1.8,6.2-2.2,9.3-.1l.2.2Z"/>
  <path class="cls-3" d="M181,313v9h-10.1c-2.1-3-1.8-5.9-.3-9.1,3.4-1.9,6.8-2.2,10.3,0h0c0,0,0,0,0,0Z"/>
  <path class="cls-3" d="M209,285v9h-9.1c-2.1-3-1.8-5.9-.3-9.1,3.1-1.9,6.2-2.2,9.3,0h0Z"/>
  <path class="cls-3" d="M418,247c-3.1.2-6.3-.4-9.4.4-1.4,2.6,0,5.4-1,7.9-2.5,1.5-5.3,0-8.4,1.3v17.2c-3.4,2.2-6.8.2-10.2,2v17.6c-3.1.8-5.7.6-8.3.2-1.6-2.6,0-5.4-1.2-8-2.7-1.5-5.8,0-8.9-1.1-1.3-2.9-.4-5.9-.5-9.2,3.3-.2,6.3-.4,9.7-.6v-17.7c3-1.8,5.8-.3,8.4-1.5,1.5-2.3,0-5.2,1.1-7.8,2.7-1.8,6.1.2,9.5-1.6v-17.8c3.1-.2,5.7-.4,8.3-.6,1.6-2.9,0-6.1,1.2-9.1,2.7-1.6,5.9,0,9.4-1.3v-18c3.3-.2,5.9-.4,8.4-.6,1.5-2.6,0-5.5,1.2-8.1,2.7-1.5,5.9,0,9.2-1.2v-27.9h19v17.9c-3,1.5-6.1,0-9.5,1.4v17.2c-3,2-5.8.5-9.2,1.8v18.3c-.2.2-.4.4-.6.6-2.1,1.2-4.6.4-6.7,1.5-2.1,2.2-.5,5.6-2.7,8.1-1.5,1.6-4.2.7-6.6,2-2.3,5,.5,10.9-1.7,16.1-.2.2-.4.4-.6.6h0Z"/>
  <path class="cls-4" d="M473.7,426.8c-2.9.1-5.5.2-8.1.4-1.2,2.7-.1,5.5-1,8.6h-17.8c-1.6,3.5,0,6.8-1.4,10-2.6.1-5.2.2-7.8.4-1.5,2.7,0,5.7-1.2,8.6h-9.3v-37c-3.1-1.4-5.8-.3-8.8-1.1v-18.3h27.5v9.6h18.8c.2,3.2.3,5.8.4,8.4,2.6,1.5,5.6,0,8.5,1.1v9.4h0Z"/>
  <path class="cls-3" d="M464.9,217.9h-8.2c-1.2,3.8-.4,6.9-.8,10h-9c-1.6,3.1-.3,5.9-1.4,8.6-2.7,1.1-5.7.3-8.5.5-.2-.2-.4-.5-.6-.7-1-6.1-2-12.3.7-18.3h0c2.8,0,5.6,0,8.1,0,1.7-2.9.2-5.8,1.4-8.4,2.7-1.5,5.8,0,9.4-1.3v-18c3.3-.2,5.9-.4,8.4-.6,1.6-2.9,0-6.1,1.2-9.1,2.5-1.1,5.2-.6,8.4-.2v18.5h-9v19h0Z"/>
  <path class="cls-3" d="M437,237v18.2c-3.2,1.6-6.4.1-9.3,1.3-1.5,2.7,0,5.8-1.1,8.9-2.7,1.3-5.7.4-8.6.6h0v-19h0c1.8-1.8,4.5-1.1,6.5-2.4,1.7-2.2.5-5.3,2.7-7.9,3.1-1.6,6.5-2,9.9.3h0c0,0,0,0,0,0Z"/>
  <path class="cls-3" d="M408,285v-18.3c3.5-1.2,6.8-.5,10-.7h0v18.3c-3.5,1.2-6.8.5-10,.7h0Z"/>
  <path class="cls-3" d="M408,285c-.1,2.8.4,5.6-.5,8.6-2.6.7-5.1.5-7.9.1-1-2.6-.6-5.2-.4-8,2.9-1.4,5.9-.5,8.8-.7h0s0,0,0,0Z"/>
  <path class="cls-1" d="M209,285h-8.3c-1.2,3.2-.5,6.1-.7,9h-19v19h-9.3c-1.2,3.2-.5,6.1-.7,9-2.8.2-5.6-.5-8.7.6v36.7c2.6,1.5,5.4,0,8.1,1.2,1.5,2.7,0,5.8,1.1,8.8,2.7,1.6,5.8,0,9.1,1.2v18.1c-3,.6-5.9.5-8.9,0-1.5-3,0-6.1-1.3-9.5h-17.4c-1.8-3-.4-5.8-1.4-8.4-2.4-1.7-5.5,0-8.3-1.4-.2-2.8-.4-5.7-.6-9-2.8-.2-5.4-.4-8.3-.6v-65c2.4-1.5,5.2,0,8.4-1.3v-17.4c3.2-1.7,6-.3,8.6-1.5,1.4-2.4,0-5.2,1.1-7.8,2.7-1.5,5.9,0,8.9-1.1,1.6-2.7,0-5.8,1.1-8.8,2.3-1.8,5.5.1,8.1-1.4,1.3-2.4-.2-5.2,1.1-7.8,2.7-1.4,5.9.1,8.8-1.1,1.5-2.7,0-5.9,1.1-8.9,2.3-1.4,5.1,0,7.8-1,1.8-2.3-.1-5.4,1.5-8.3h17.6c1.5,2.6,0,5.4,1.2,8,2.7,1.5,5.8,0,8.8,1.1,1.6,2.6,0,5.8,1.1,8.8,2.3,1.8,5.5-.1,8.1,1.4,1.3,2.4-.1,5.2,1.1,7.8,2.7,1.4,5.9-.1,9,1.1,1.1,2.8.2,5.7.5,8.5-3.1,1.9-6.2.2-9.3,1.4-1.4,2.6-.3,5.6-.7,8.5h-18.2c-1.3,3.5-.5,6.8-.8,10h0Z"/>
  <path class="cls-1" d="M218.8,389.5c.2,2.9.3,5.4.5,7.8,2.6,1.6,5.5.1,8.4,1.4v18.1h-27.2v-27.2h18.4,0Z"/>
  <path class="cls-1" d="M437,237h-9.2c-1.6,3.2-.2,6.3-1.3,9.4-2.7,1.2-5.7.3-8.6.6v-18.1c2.9-1.7,5.8-.2,8.4-1.4,1.5-2.7,0-5.8,1.1-8.9,3-1.3,6.4-.3,9.6-.6v19.1h0Z"/>
</svg>