<?xml version="1.0" encoding="UTF-8"?>
<svg id="Layer_2" data-name="Layer 2" xmlns="http://www.w3.org/2000/svg" viewBox="0 0 608 607">
  <defs>
    <style>
      .cls-1 {
        fill: #e67050;
      }

      .cls-1, .cls-2, .cls-3, .cls-4, .cls-5 {
        stroke-width: 0px;
      }

      .cls-2 {
        fill: #5c747e;
      }

      .cls-3 {
        fill: #e9c46d;
      }

      .cls-4 {
        fill: #fefefe;
      }

      .cls-5 {
        fill: #274754;
      }
    </style>
  </defs>
  <g id="Layer_1-2" data-name="Layer 1">
    <g>
      <path class="cls-4" d="M265.99,607H0V0h265.99c.39.46.71.97.98,1.51.73,2.82.78,5.58-1.01,8.99-11.4,2.67-23.65-.32-35.15,1.59-1.77,2.37-1.07,5.1-3.57,7.74-10.9,1.94-22.94-.34-34.37,1.17-2.01,2.67-.88,5.78-3.1,8.41-4.76,2.61-10.76-.06-15.92,1.74-1.97,2.11-.94,5.16-3.32,7.4-4.68,2.32-10.45-.09-15.67,1.59-2.2,2.24-.71,5.7-3.19,8.31-1.37,1.37-4.09.62-6.11,1.99-1.55,1.81-.79,4.55-2.79,6.86-4.71,2.83-10.75-.02-16.01,1.91-1.96,2.22-.75,5.37-2.51,7.54-1.76,2.14-4.78,1.21-6.77,2.74-1.46,1.96-.73,4.68-2.42,6.5-2.1,1.99-5.2.97-7.52,2.48-1.74,2.14-.49,5.3-2.64,7.73-1.49,1.55-4.18.91-6.26,2.19-1.76,1.85-.76,4.89-2.66,6.76-2.13,1.89-5.26.75-7.5,2.42-1.57,2.24-.53,5.34-2.44,7.46-1.78,1.77-4.52,1.04-6.44,2.46-1.55,1.87-.86,4.6-2.64,6.6-1.92,1.91-5.02.89-7.36,2.35-1.76,2.12-.58,5.27-3.15,8.21-1,1.08-3.71.46-6,1.94-2.46,4.98.6,11.06-2.08,16.07-2.18,2.31-5.28,1.34-7.66,2.75-1.73,1.71-.91,4.49-3.22,7.27-1.01,1.18-4.01.35-6.16,1.95-2.22,5.2.72,11.25-2,16.13-2.42,2.26-5.53,1.18-8.13,2.96-2.15,8.1.89,16.97-1.67,24.81-2.26,2.17-4.92,1.64-7.29,3.06-2.2,8.49.83,17.68-1.67,25.83-2.51,2.56-5.61,1.55-8.47,3.31-1.76,11.37.54,23.41-1.17,34.29-2.45,2.74-5.17,2.06-7.95,3.3-.55,26.66-.49,53.33-.46,79.29,2.65,2.36,5.41,1.56,7.96,3.76,2.66,7.62-.3,16.47,1.62,24.71,2.29,2.07,5.46.88,8.35,3.26,2.71,7.93-.29,17.1,1.64,25.65,2.02,2.09,5.1,1.07,7.32,3.4,1.96,3.6.78,8.02,1.08,12.27.31,4.26-.71,8.63.81,12.64,2.45,1.77,5.58.69,8.03,2.95,2.65,4.86-.08,10.88,1.88,15.98,2.16,1.68,4.88.98,6.95,2.86,1.83,1.83.73,4.96,2.28,7.29,2.12,1.75,5.26.6,7.78,2.77,2.86,4.44-.01,10.18,2.04,15.09,1.89,1.72,4.64.97,6.51,2.51,2.38,2.09,1,5.51,2.73,7.8,2.31,1.53,5.41.44,7.52,2.43,1.72,1.81,1.02,4.53,2.45,6.5,1.85,1.5,4.6.7,6.67,2.58,1.83,1.85.81,4.94,2.22,7.3,2.12,1.83,5.27.59,7.78,2.63,1.6,1.42.93,4.12,2.17,6.3,1.73,1.81,4.78.79,6.68,2.61,2.05,2.08.9,5.21,2.46,7.5,2.17,1.68,5.29.61,7.44,2.44,1.83,1.75,1.19,4.46,2.54,6.48,1.76,1.62,4.53.87,6.69,2.74,1.83,1.73.84,4.83,2.37,7.46,5.02,2.38,11.07-.52,15.89,1.88,2.46,2.09,1.57,5.11,3.13,7.09,1.96,1.45,4.7.66,6.71,2.62,1.73,1.9.74,4.98,2.31,7.48,5.16,2.2,11.18-.56,15.99,1.83,2.22,2.15,1.57,4.86,3.16,7.35,8.33,2.06,17.49-.81,25.7,1.55,2.59,2.46,1.62,5.53,3.15,8.39,8.11,2.33,17.19-1.03,25.08,1.8,2.11,2.33,1.52,5.01,3.08,7.38,11.55,1.77,23.61-.77,34.96,1.37,2.24,3.31,2.05,6.24,1.35,9.23-.27.54-.6,1.04-1,1.5Z"/>
      <path class="cls-4" d="M342.01,0h265.99v607h-265.99c-.39-.46-.71-.97-.98-1.51-.73-2.82-.78-5.58,1.01-8.99,11.4-2.67,23.65.32,35.15-1.59,1.78-2.36,1.06-5.09,3.28-7.44,7.75-2.57,16.59.27,24.71-1.56,1.94-2.57.84-5.7,3.27-8.47,8.03-2.58,17.2.37,25.69-1.59,1.86-2.09,1.08-4.84,3.08-7.2,4.68-2.75,10.7.05,15.96-1.85,2.11-2.32.7-5.76,3-8.06,1.69-1.52,4.39-.84,6.38-2.24,1.35-1.94.74-4.63,2.69-6.81,4.83-2.79,10.88.11,16.11-2,1.74-2.34.68-5.45,2.73-7.8,1.56-1.61,4.27-.98,6.29-2.32,1.63-1.77.84-4.53,2.73-6.71,1.73-1.82,4.82-.84,7.23-2.22,1.92-2.04.61-5.22,2.37-7.38,1.77-2.13,4.77-1.22,6.83-2.76,1.47-1.89.71-4.61,2.34-6.46,2.08-2.08,5.19-.96,7.53-2.44,1.78-2.12.59-5.27,2.41-7.43,1.71-1.9,4.4-1.28,6.5-2.5,1.8-1.82.82-4.87,2.73-6.73,2.12-1.95,5.23-.85,7.49-2.43,1.61-2.23.47-5.36,2.41-7.48,1.77-1.79,4.49-1.1,6.73-2.67,2.23-4.68-.65-10.43,2-15.07,2.26-2.27,5.36-1.25,7.73-2.7,1.82-2.08.6-5.24,2.82-7.89,1.37-1.58,4.41-.65,6.53-2.42,2-5.07-.55-10.88,1.78-15.79,2.26-2.61,5.69-1.29,8.17-3.17,2.13-5.16-.64-11.19,1.86-15.93,2.25-2.15,4.98-1.45,7.27-3.18,2.1-8.05-.89-16.91,1.62-24.71,2.57-2.5,5.69-1.42,8.46-3.25,1.84-11.4-.72-23.46,1.33-34.46,2.42-2.51,5.12-1.88,7.85-3.13.47-26.67.43-53.34.04-80.01-2.44-1.59-5.21-.79-7.51-2.44-2.19-15.08-.23-30.39-1.43-45.09-2.71-2.21-5.85-1.07-8.67-3.5-2.62-7.64.3-16.49-1.59-24.68-2.07-1.84-4.8-1.1-7.23-3.1-2.76-4.62.05-10.66-1.86-15.92-2.19-2.05-5.34-.86-8.01-2.96-3.11-4.74.21-11.07-2.18-16.29-2.09-1.53-4.8-.87-6.98-2.89-2.7-4.81.19-10.86-1.94-16-2.41-1.83-5.53-.74-7.77-2.72-1.67-1.68-1-4.39-2.36-6.4-1.81-1.55-4.55-.84-6.41-2.42-2.15-2.03-1.11-5.13-2.53-7.53-2.06-1.83-5.22-.63-8.42-3.27-1.07-.9-.16-3.93-1.79-5.93-1.9-1.43-4.64-.65-6.61-2.57-1.74-1.95-.82-5.01-2.13-7.22-2.33-1.81-5.46-.64-7.77-2.6-1.66-1.64-.99-4.33-2.26-6.42-1.76-1.61-4.49-.86-6.65-2.55-2.18-1.83-.77-5.28-2.55-7.61-2.25-1.53-5.34-.53-7.46-2.46-1.73-1.8-1.05-4.52-2.47-6.48-1.85-1.52-4.6-.74-6.87-2.86-1.63-1.63-.59-4.73-2.02-7.06-2.14-1.82-5.3-.56-7.82-2.7-1.54-1.4-.9-4.1-2.28-6.43-4.72-2.6-10.74.71-15.43-2.25-2.05-2.37-1.09-5.43-2.62-7.87-5.24-2.24-11.28.67-16.2-1.98-2.04-2.07-1.39-4.76-2.79-6.97-5.11-2.33-11.15.59-16.14-1.97-2.36-2.26-1.32-5.35-2.96-8.21-8.34-2.13-17.49.74-25.62-1.52-2.64-2.19-1.72-5.21-3.59-7.68-7.04-1.17-14.53-.19-21.96-.53-7.41-.34-14.93.93-21.93-.87-2.18-3.23-2-6.16-1.29-9.15.27-.54.6-1.04,1-1.5Z"/>
      <path class="cls-2" d="M342.01,0c-.05.35-.1.7-.16,1.05-1.91,1.8-4.33,1.54-6.62,1.54-20.82.05-41.63.05-62.45,0-2.3,0-4.72.25-6.62-1.54-.05-.35-.1-.7-.16-1.05,25.34,0,50.68,0,76.01,0Z"/>
      <path class="cls-2" d="M341.85,605.95c.05.35.1.7.16,1.05h-76.01l.16-1.05c1.91-1.8,4.33-1.54,6.62-1.54,20.82-.05,41.63-.05,62.45,0,2.3,0,4.72-.25,6.62,1.54Z"/>
      <path class="cls-5" d="M341.85,605.95c-25.23,0-50.47,0-75.7,0v-8.86h-38.11v-9.09h-27.93v-9.76h-28.93v-9.1h-19.11v-10.1h-8.93v-8.75h-18.55c-1.25-3.42-.16-6.62-.87-9.81-2.58-1.2-5.48.07-8.31-.76-1.13-2.6.11-5.5-.84-8.62h-9.55v-9.92h-8.4c-1.29-2.89-.23-5.77-.86-8.73-2.9-1.07-6.1.02-9.59-.73v-9.05c-3.08-1.35-5.98-.1-9.1-1.06v-8.55h-9.93v-9.39c-2.89-1.29-5.77-.24-8.93-.93v-17.53h-10.1v-10.1h-9.1v-18.93h-9.76v-27.52c-3.08-1.28-5.96-.19-9.1-.94v-28.56h-10.1v-28.11H1.17v-84.91h8.53v-37.92h10.1v-29.11h9.1v-27.93h9.76v-18.47c3.07-1.4,5.96-.19,8.81-.94,1.19-2.58-.07-5.48.85-8.61h9.54v-19.1h8.92v-9.43c3.23-1.26,6.44-.18,9.92-.86v-8.05c3.07-1.41,5.97-.16,9.1-1.07v-9.54h10.1v-8.92h8.42c1.28-3.23.19-6.43.83-9.73,2.92-1.07,6.12.02,9.32-.69,1.2-2.58-.06-5.48.77-8.32,2.6-1.08,5.49.05,8.62-.77v-9.62h18.93v-8.39c2.89-1.29,5.77-.23,8.92-.9v-9.56h18.6c1.34-3.08.1-5.98,1.06-9.1h18.56v-10.1h37.93v-8.76h38.29V1.05c25.23,0,50.47,0,75.7,0v8.86h47.11v9.09h28.93v9.76h18.49c1.3,3.07.13,5.96,1,9.1h18.54v10.1h17.93v8.42c3.23,1.27,6.44.16,9.74.85,1.06,2.89-.04,6.09.68,9.29,2.58,1.19,5.48-.07,8.31.76,1.13,2.6-.12,5.5.85,8.62h9.56v9.92h8.4c1.28,2.89.22,5.77.86,8.73,2.9,1.07,6.11-.02,9.59.74v9.55h9.1v9.1h9.93v9.4c2.89,1.28,5.77.23,8.74.86,1.07,2.55-.02,5.44.72,8.58h9.56v19.1h9.1v18.94h9.76v18.52c3.08,1.28,5.96.2,9.1.94v27.56h10.1v48.1h8.87v84.91h-8.53v37.92h-10.1v28.11h-9.1v18.93h-9.76v18.49c-3.07,1.35-5.96.19-9.1.99v9.55h-10.11v18.1h-8.92v9.43c-3.23,1.25-6.44.17-9.69.81-1.17,2.58.03,5.47-.72,8.32-2.58,1.19-5.48-.07-8.61.85v9.54h-10.1v8.92h-8.42c-1.27,3.23-.19,6.43-.83,9.73-2.92,1.06-6.12-.02-9.32.68-1.2,2.58.06,5.48-.76,8.31-2.6,1.13-5.5-.11-8.62.84v9.56h-18.93v8.37c-2.88,1.4-5.78.16-8.76.94-1.03,2.84.03,6.04-.7,9.54h-18.57v9.1h-29.11v10.1h-27.93v8.76h-38.29v9.18Z"/>
      <path class="cls-1" d="M492.87,170.98v8.38c-2.75,1.37-5.7.03-8.69,1.11v17.86c-3.51,1.25-6.84.34-10.05.76-.21-.19-.42-.38-.63-.57-1.53-3.14-.75-6.51-.94-9.78-.12-2.12.22-4.31-.77-6.1-1.4-1.09-2.65-1-4.02-.36-2.07,2.11-.62,5.55-2.95,7.99-1.53,1.49-4.23.77-6.32,2.21-1.63,2.61-.79,5.66-.99,8.57-.19,2.77.4,5.67-1.4,7.98-2.2,1.84-4.99.98-7.32,2.19-1.92,1.74-.89,4.78-2.93,7.01-2.77,1.55-5.86,1.78-9-.14-2.45-6.31-1.43-12.64-.61-18.35,2.3-2.48,5.01-1.83,7.32-3.25,2.54-5.09-.74-11.4,2.19-16.33,2.43-2.21,5.56-1.02,8.17-2.98.9-4.41,1.01-9.08-.18-13.91-4.9-1.19-9.46-.96-14.39-.22-2.32,9,.83,18.36-1.86,26.61-2.58,2.18-5.4,1.39-7.71,2.66-1.9,1.75-.88,4.83-2.97,6.92-1.57,1.48-4.28.82-6.47,2.41-2.23,5.05.67,11.09-1.94,16-2.35,2.32-5.46,1.28-7.83,2.82-1.69,2.1-.58,5.23-2.55,7.57-1.58,1.66-4.27,1.04-6.58,2.48-2.49,5.08.71,11.38-2.08,16.25-2.48,2.06-5.3,1.26-7.58,2.54-1.91,1.77-.84,4.87-2.77,6.71-1.8,1.69-4.51,1.02-6.56,2.55-1.52,2.49-.78,5.39-.94,8.16-.15,2.79.3,5.68-1.11,7.91-2.38,2.34-5.5,1.25-7.81,2.82-1.19,1.61-1.17,3.31-.15,5.04,2.28,1.61,5.37.48,7.54,2.33,1.82,1.78,1.04,4.5,2.36,6.54,1.27,1.03,2.65,1.02,4.28.06,2.27-5.16-.64-11.2,2.01-16.14,2.3-2.28,5.41-1.22,7.94-2.84,2.36-5.07-.58-11.12,2-16.08,1.93-2.13,4.64-1.45,6.72-2.74,1.81-1.8.83-4.85,3.05-7.03,3.13-1.36,6.58-1.85,9.99.49,1.87,6.16,1.94,12.32.05,18.48-1.99,2.56-5.29,1.3-8,2.75-2.33,5.01.55,10.9-1.87,16.08-1.72,2.59-4.94,1.34-7.14,2.72-1.19,1.48-1.03,3.01-.42,4.49,1.67,1.28,3.18,1.09,4.72.19,1.7-2.11.27-5.39,2.74-7.18,2.07-1.66,4.89-.5,7.26-2.06,2.43-5.13-.98-11.32,2.28-16.51,1.74-1.85,4.42-1.11,6.5-2.34,1.88-2.2.42-5.56,2.47-7.76,2.1-2.03,5.14-.82,7.72-2.3,2.4-5.19-.73-11.34,2.12-16.65,1.89-1.9,4.79-.92,6.77-2.25,1.56-2.01.68-4.69,2.65-7,2.68-1.7,5.96-1.63,9.34-.31.2.21.39.43.59.64v18.78h-9.97v18.87c-3.18.16-5.79.3-8.44.43-1.55,2.64.05,5.65-1.27,8.67h-9.26v18.9c-3.18.16-5.78.29-8.49.43-1.55,2.96.07,6.27-1.21,9.64h-8.74c-1.23,3.08-.63,5.83-.55,8.99h36.88c1.84,2.94.26,5.94,1.46,8.98h36.63c1.71,3.3.19,6.6,1.35,9.98,2.46.12,5.06.26,7.79.39,1.65,2.54.02,5.55,1.14,8.32,2.84,1.35,6.15-.24,9.51,1.12v8.58c2.97,1.66,5.97.07,8.89,1.4.12,2.5.24,5.11.36,7.77,3.04,1.51,6.35-.1,9.71,1.23v8.56c2.96,1.73,5.97.12,8.99,1.47v17.57c3.31,1.71,6.62.08,9.85,1.34v26.98c-2.89,1.16-6.14,0-9.55.88v17.71c-2.95,1.81-5.96.19-8.99,1.49v17.55c-3.3,1.78-6.61.14-9.71,1.3-1.12,2.82.03,5.88-.78,9.03-2.58,1.07-5.33.43-8.1.39-1.27-3.06-.06-6.14-.91-9.23-2.77-1.52-6.08.12-9.47-1.12v-17.67c-3.06-1.39-5.83-.67-8.58-.67-1.47,3.12.12,6.42-1.24,9.78h-8.59c-1.64,2.97-.05,5.97-1.45,8.99h-16.59c-1.63,3.32-.02,6.63-1.37,9.98h-8.57c-1.69,2.96-.1,5.97-1.41,8.9-2.49.12-5.1.25-7.74.37-1.55,2.66.05,5.66-1.28,8.68h-9.26v47.89c-3.18.16-5.78.29-8.45.43-1.59,2.61.03,5.62-1.27,8.65h-17.56c-1.78,3.3-.14,6.61-1.41,9.99h-17.51c-1.86,2.94-.23,5.95-1.46,8.87h-47.09v-37.19c2.79-1.16,5.86,0,9.35-.87v-26.74c3.15-1.71,6.16-.12,9.16-1.54v-17.59c3.32-1.59,6.63,0,9.82-1.29v-46.37h-9.65v-28.86c-3.12-.15-5.86-.29-8.88-.44-.13-2.86-.25-5.47-.38-8.14-3.03-1.51-6.34.09-9.7-1.22v-8.56c-2.96-1.74-5.96-.14-8.92-1.43-.12-2.47-.25-5.08-.39-7.78-2.97-1.54-6.28.07-9.66-1.21v-8.69c-2.99-1.4-5.92-.29-8.62-1.04-1.19-2.63-.07-5.37-.84-8.09-2.46-1.54-5.47.08-8.24-1.07-1.16-2.78.05-5.86-.9-9.35h-17.76c-1.48-3.08-.33-5.83-1.22-8.98h-47.27v-18.65c2.72-1.46,6.02.08,9.11-.97,1.39-2.51-.2-5.52,1.13-8.42,2.51-.11,5.12-.23,7.79-.36,1.4-3.06,0-6.35,1.08-9.72h8.69c1.71-2.96.11-5.97,1.41-8.9,2.49-.13,5.1-.26,8.3-.42v-18.5h65.51c1.52,2.52-.1,5.52,1.16,8.41h8.94c1.16-2.52.06-5.45.81-8.15,2.64-1.18,5.38-.07,8.54-.96v-17.86c3.43-1.4,6.5-.21,9.58-1.04,1.52-2.78-.12-6.1,1.02-9.18,2.47-1.16,5.22-.03,8.37-.91v-17.84c3.43-1.43,6.49-.27,9.56-1.03,1.59-2.44-.04-5.45,1.19-8.51,2.52-.14,5.26-.29,8.39-.46v-17.99c3.32-1.62,6.63-.01,9.99-1.37v-17.56c2.97-1.69,5.97-.09,8.98-1.46v-8.58c3.31-1.66,6.62-.05,9.99-1.38v-17.2c3.12-.14,5.85-.27,8.99-.41v-18.23c3.62-.97,6.9-.54,10.16-.41,1.71,1.66,1.1,4.13,2.14,6.14,1.78,1.94,4.85.73,6.79,2.51,2.12,2.07.94,5.15,2.33,7.66,2.58,1.77,5.66.82,8.58,1.04,2.77.21,5.69-.48,8.01,1.21,1.91,2.01,1.14,4.7,2.42,6.76,1.79,1.67,4.57.59,6.46,2.16,2.15,1.79,1.16,4.76,2.62,6.92,2.17,1.67,5.27.38,7.61,2.24,2.18,2.03.76,5.41,2.44,7.79,1.89,1.47,4.68.53,6.42,2.39Z"/>
      <path class="cls-3" d="M171.01,322.04v28.76h9.13c1.67,2.92.21,5.89,1.19,8.69,2.52,1.25,5.47-.07,8.47.92v9.37h18.38c1.59,3.12.11,6.09,1.34,9.08h17.76c1.46,3.29.1,6.55,1.18,10.08h18.42v8.91h18.91v9.37c3.28,1.58,6.54.19,9.68,1.12,1.33,2.53-.15,5.49,1.05,8.49h17.8c1.35,3.3.2,6.53.93,9.61,2.65,1.35,5.61-.12,8.61,1.1v17.63c2.93,1.68,5.9.17,8.84,1.28v46.42h-8.52v18.86c-3.25.19-5.99.34-9.07.52v8.03c-3.29,1.53-6.56.05-9.91,1.2v17.69c-2.92,1.67-5.88.22-8.69,1.19-1.3,2.86.18,6.14-.99,9.48h-17.65c-1.71,2.92-.2,5.89-1.29,8.85h-37.42v-8.48h-28.44c-1.48-3.48-.03-6.75-1.23-10.07h-8.13v-19.08h37.55v-8.28c2.94-1.57,5.9-.09,8.81-1.23v-28c-2.46-1.26-5.39,0-8.6-.94v-17.42h-9.38c-1.5-3.29-.13-6.55-1.07-9.66-2.57-1.29-5.54.17-8.52-1.05v-8.28h-19.09v-10.07h-9.28c-1.6-2.94-.11-5.9-1.28-8.91h-26.75c-1.5-3.28-.22-6.53-1.16-10.08h-27.42v-8.91h-18.44c-1.54-3.47-.06-6.74-1.26-10.08h-17.66c-1.68-2.93-.17-5.9-1.37-9.07h-9.35v-18.27c-2.94-1.62-5.9-.13-8.82-1.26v-47.44h8.56v-27.9h9.91v-18.37c3.12-1.63,6.09-.15,9.08-1.36v-17.74c3.29-1.49,6.55-.13,9.65-1.07,1.29-2.57-.18-5.54,1.05-8.52h8.29v-19.08h10.08v-9.28c2.94-1.6,5.9-.11,8.9-1.27v-7.72c3.28-1.58,6.54-.19,9.7-1.12,1.31-2.87-.17-6.14.99-9.48h7.66c1.72-2.92.21-5.89,1.22-8.68,2.53-1.22,5.47.07,8.48-.91v-9.21h28.69c1.25,2.89-.21,6.16.99,9.48h7.69c1.64,2.93.14,5.9,1.35,9.08h9.35v9.28c2.94,1.6,5.9.11,8.9,1.27v8.25h19.08v19.08h9.44c1.36,3.3.2,6.53.95,9.62,2.65,1.34,5.61-.13,8.49,1.05v27.55h-18.7c-.2-.2-.41-.4-.61-.6-1.25-2.76-1.1-5.47.1-8,2.23-2.56,5.62-1.23,8.02-2.93,1.1-1.68,1.08-3.37-.04-5.07-2.29-1.52-5.37-.47-7.53-2.36-1.78-1.8-1.03-4.51-2.4-6.53-1.81-1.53-4.55-.77-6.69-2.57-1.89-1.8-.84-4.9-2.25-7.31-2.13-1.96-5.58-.53-7.74-2.7-1.63-1.83-1.01-4.52-2.63-6.82-4.51-1.01-9.18-1-13.53-.04-1.67,2.28-.99,4.76-2.35,6.56-1.75,2.19-4.73,1.31-6.88,2.76-1.71,2.13-.46,5.26-2.38,7.58-1.93,2-5.01.93-7.44,2.27-1.86,1.8-.76,4.86-2.6,6.76-1.8,1.75-4.52.99-6.52,2.36-1.74,2.15-.57,5.27-2.48,7.62-1.9,2-5,.9-7.49,2.36-1.61,1.67-.81,4.41-2.26,6.31-1.74,2.18-4.75,1.26-7,2.91-2.24,5.1.63,11.13-1.94,16.09-2.01,2.09-4.73,1.34-7.42,2.62-.54,20.33-.62,40.67-.3,60.47,2.58,2.3,5.6,1.35,7.46,3.29,1.7,2.06.9,4.88,2.15,7.18,1.8,1.86,4.85.87,6.87,2.85,1.57,1.67.87,4.39,2.49,6.58,5.06,2.14,11.09-.61,15.91,1.83,2.44,2.43,1.33,5.55,2.84,7.86,1.6,1.31,3.31,1.08,5.41.16,1.13-4.47.78-9.04.3-13.4-2.4-2.48-5.86-1-8.45-3.37-1.68-1.71-.6-4.81-2.03-7.15-1.83-1.6-4.57-.83-7.14-2.37-1.4-12.73-1.22-25.47-.59-37.72,3.73-2.31,6.58-2.35,9.52-1.1.2.2.4.41.6.62Z"/>
      <path class="cls-3" d="M331.84,161.02v18.92h-18.72v18.89h-18.07v9.93h-56.53c-1.29-2.91.07-6.16-1-9.68h-18.4v-8.46c-3.3-1.22-6.53-.16-10.07-.97v-18.52h-8.71v-56.62c2.54-1.29,5.5.18,8.48-1.03v-7.75c3.28-1.49,6.54-.12,9.67-1.07,1.26-2.91-.19-6.18,1-9.51h17.66c1.68-2.92.17-5.89,1.2-8.65,2.55-1.27,5.51.19,8.49-1.03v-9.58h29.09c6.29-2.65,12.59-1.46,19.52-.54,1.82,10.17,1.39,19.92.42,28.96-2.81,2.76-5.93,1.62-8.12,3.11-1.09,1.21-.89,2.47-.46,3.74,1.52,1.52,3.42,1.27,5.21,1.28,7.82.05,15.64-.02,23.45.04,2.47.02,5.03-.2,7,1.41,2.02,2.27,1.02,5.38,2.64,7.56,1.97,1.42,4.67.81,6.67,2.71,1.59,2.76,1.58,5.73.1,8.5-1.94,2.06-4.65,1.48-7.26,3.23-1.02,7.2-.71,14.86-.13,22.12,2.37,1.95,5.17,1.14,6.87,3.02Z"/>
      <path class="cls-1" d="M331.84,161.02h-8.4v-27.7c2.72-.21,5.31-.4,8.09-.61.75-2.77.57-5.35.2-7.93-2.56-1.59-5.41-.11-8.05-1.22-1.55-2.65,0-5.81-1.26-9.38h-36.79c-.98-3.3-.55-5.87-.47-8.4,3.1-1.57,6.24-.11,9.45-1.3v-28.59c-6.18,0-12.42,0-18.67,0,0-2.79,0-5.57,0-8.62h65.42c1.54,2.51-.07,5.51,1.21,8.53h36.63c1.58,3.3.26,6.56,1.27,10.12h27.32c.16,3.17.28,5.77.41,8.43,3.03,1.5,6.34-.1,9.55,1.16v9.33h-36.99c-1.36,3.08-.26,5.82-1.15,8.96h-17.86c-1.39,3.42-.25,6.48-1.02,9.61-2.8,1.37-6.08,0-9.64,1.05v18.3c-3.17.15-5.78.28-8.4.41-1.52,2.69.06,5.69-1.28,8.7h-9.13c-.16,3.3-.29,6.23-.43,9.15Z"/>
      <path class="cls-3" d="M492.87,170.98h-7.88c-1.95-3.07-.14-6.46-1.57-9.7-2.83-.18-5.74-.36-8.6-.54-1.59-2.6-.14-5.43-1.22-8.04-2.38-1.63-5.46.07-8.27-1.32-.2-2.56-.4-5.13-.63-8.24h-17.66c-1.86-3.27-.35-6.41-1.38-9.37-2.34-1.8-5.46.1-8.13-1.37-.99-2.64-.28-5.47-.47-8.23,12.32,0,24.64,0,36.97,0,1.91,2.07,1.4,4.66,1.53,7.11.17,3.1-.45,6.29.73,9.3,5.43,2.41,11.53-.97,16.59,2.44,0,9.32,0,18.64,0,27.96Z"/>
      <path class="cls-1" d="M492.87,143.02h-18.86c0-6.7,0-12.78,0-18.86,6.11,0,12.22,0,18.86,0v18.86Z"/>
      <path class="cls-3" d="M200.02,294.04v9.91h-9.92v8.51c-3.19,1.01-6.18.31-9.08.58-.22-.24-.44-.47-.67-.7-1.6-6.19-1.2-12.32.01-18.74,6.63-1.56,12.77-1.77,18.96-.23.23.22.47.45.7.68Z"/>
      <path class="cls-3" d="M228.02,275.04v10h-19c-.22-.24-.45-.48-.68-.72-1.29-3.22-1.28-6.37.79-10.03,6.12-.87,12.49-2.13,18.83.7l.06.06Z"/>
      <path class="cls-1" d="M474.13,199.09v19h-9c-.23-.23-.46-.47-.7-.7-1.65-6.14-1.3-12.24-.03-18.24,3.39-1.95,6.43-2.38,9.52-.27l.21.21Z"/>
      <path class="cls-1" d="M465.12,218.09v10c-3.26,0-6.13,0-9.01,0,0,0-.21-.21-.21-.21-2.17-3.23-1.66-6.5-.25-9.87,3.11-1.84,6.16-2.23,9.26-.13l.21.21Z"/>
      <path class="cls-3" d="M181.01,313.04v9c-3.54,0-6.77,0-10,0,0,0-.06-.06-.06-.06-2.12-2.91-1.8-5.88-.26-9.05,3.42-1.92,6.83-2.18,10.27.05l.06.06Z"/>
      <path class="cls-3" d="M209.02,285.04v9c-3.21,0-6.1,0-9,0,0,0-.06-.06-.06-.06-2.11-2.91-1.79-5.88-.29-9,3.11-1.87,6.18-2.18,9.29,0l.06.06Z"/>
      <path class="cls-3" d="M418.04,246.98c-3.12.24-6.29-.42-9.39.45-1.35,2.55,0,5.37-1.05,7.9-2.45,1.48-5.3,0-8.35,1.32v17.2c-3.35,2.21-6.79.22-10.21,2.01v17.62c-3.12.77-5.7.65-8.27.24-1.56-2.58-.09-5.42-1.21-8.05-2.67-1.54-5.84.03-8.92-1.12-1.29-2.85-.42-5.9-.47-9.24,3.34-.21,6.26-.39,9.73-.61v-17.68c2.97-1.82,5.82-.34,8.42-1.46,1.52-2.32.05-5.17,1.09-7.83,2.69-1.78,6.12.21,9.55-1.56v-17.8c3.13-.24,5.72-.43,8.3-.62,1.57-2.94.07-6.09,1.16-9.05,2.7-1.55,5.86-.02,9.43-1.29v-18.04c3.31-.25,5.89-.45,8.41-.64,1.52-2.65.05-5.5,1.24-8.1,2.7-1.46,5.85.07,9.24-1.21v-27.95h18.95v17.85c-2.97,1.5-6.12-.03-9.5,1.35v17.22c-2.95,1.97-5.8.49-9.21,1.83v18.32c-.2.19-.39.38-.59.57-2.07,1.2-4.6.42-6.74,1.54-2.08,2.2-.51,5.58-2.72,8.09-1.53,1.61-4.19.73-6.63,2.01-2.28,4.99.47,10.89-1.7,16.15-.19.2-.39.39-.58.59Z"/>
      <path class="cls-5" d="M473.74,426.81c-2.9.13-5.5.25-8.11.37-1.23,2.72-.12,5.46-1,8.61h-17.79c-1.64,3.49-.06,6.79-1.36,10.02-2.56.12-5.16.24-7.77.36-1.52,2.71.06,5.7-1.22,8.56h-9.31v-36.99c-3.07-1.36-5.81-.26-8.76-1.09v-18.32h27.52v9.57h18.84c.16,3.17.29,5.77.43,8.43,2.65,1.47,5.63.03,8.53,1.11v9.37Z"/>
      <path class="cls-3" d="M464.92,217.88h-8.19c-1.23,3.75-.36,6.92-.81,10-3.08,0-6.16,0-8.97,0-1.63,3.07-.31,5.85-1.39,8.58-2.7,1.1-5.67.32-8.55.52-.21-.23-.42-.47-.63-.7-1.05-6.15-2.03-12.3.68-18.3,0,0-.05.05-.05.05,2.79,0,5.57,0,8.12,0,1.67-2.95.23-5.78,1.38-8.39,2.68-1.48,5.82.04,9.36-1.26v-18.01c3.27-.25,5.85-.44,8.42-.63,1.56-2.94.06-6.07,1.19-9.14,2.55-1.07,5.25-.64,8.43-.2,0,6.31,0,12.4,0,18.49-2.77,0-5.55,0-9,0v19Z"/>
      <path class="cls-3" d="M437,236.98v18.18c-3.25,1.64-6.39.14-9.33,1.3-1.5,2.7.02,5.84-1.1,8.92-2.67,1.27-5.68.36-8.58.59l.05.05c0-6.35,0-12.7,0-19.05,0,0-.05.05-.05.05,1.77-1.81,4.49-1.1,6.5-2.41,1.68-2.19.53-5.3,2.66-7.85,3.06-1.63,6.47-2,9.91.26l-.05-.05Z"/>
      <path class="cls-3" d="M408.05,285.03v-18.33c3.5-1.23,6.79-.48,10-.67,0,0-.05-.05-.05-.05,0,6.07,0,12.13,0,18.33-3.5,1.23-6.79.48-10,.67l.05.05Z"/>
      <path class="cls-3" d="M407.99,284.97c-.13,2.78.43,5.61-.46,8.6-2.57.7-5.14.52-7.92.13-1.01-2.63-.59-5.23-.36-7.98,2.88-1.36,5.89-.46,8.8-.69,0,0-.05-.05-.05-.05Z"/>
      <path class="cls-1" d="M208.96,284.98h-8.29c-1.22,3.2-.46,6.15-.71,9h-19c0,6.62,0,12.81,0,19h-9.28c-1.23,3.2-.46,6.15-.72,9-2.78.24-5.63-.45-8.67.59v36.7c2.6,1.52,5.45.04,8.06,1.22,1.48,2.69-.06,5.84,1.06,8.82,2.66,1.57,5.82.02,9.11,1.18v18.14c-3.02.56-5.93.49-8.85.06-1.47-2.98-.03-6.12-1.29-9.51h-17.4c-1.79-2.96-.39-5.79-1.4-8.44-2.35-1.73-5.46.06-8.34-1.4-.18-2.82-.36-5.74-.56-9.01-2.78-.21-5.37-.4-8.33-.63v-65.04c2.37-1.47,5.21-.04,8.45-1.3v-17.41c3.17-1.72,6.02-.26,8.57-1.48,1.38-2.4-.05-5.24,1.06-7.83,2.72-1.5,5.88.03,8.86-1.08,1.57-2.66.03-5.82,1.06-8.8,2.34-1.82,5.48.12,8.08-1.35,1.3-2.41-.16-5.25,1.07-7.83,2.73-1.41,5.88.12,8.83-1.05,1.5-2.7-.03-5.86,1.09-8.9,2.29-1.43,5.13-.02,7.8-1.03,1.8-2.3-.14-5.44,1.47-8.27h17.56c1.53,2.57.05,5.42,1.21,8.04,2.68,1.49,5.84-.04,8.83,1.06,1.58,2.65.04,5.81,1.07,8.8,2.33,1.83,5.47-.11,8.08,1.36,1.31,2.4-.15,5.24,1.07,7.83,2.72,1.42,5.88-.11,8.96,1.11,1.12,2.75.23,5.71.5,8.54-3.05,1.86-6.22.24-9.32,1.4-1.41,2.58-.33,5.64-.68,8.53h-18.25c-1.3,3.51-.47,6.81-.75,10Z"/>
      <path class="cls-1" d="M218.75,389.45c.17,2.92.32,5.37.46,7.76,2.64,1.59,5.47.14,8.36,1.35v18.14h-27.21v-27.24h18.39Z"/>
      <path class="cls-1" d="M437.05,237.03h-9.19c-1.62,3.21-.2,6.32-1.28,9.39-2.7,1.2-5.7.3-8.59.61,0-6.11,0-12.22,0-18.1,2.94-1.71,5.78-.25,8.39-1.4,1.49-2.68-.04-5.82,1.09-8.9,3-1.28,6.35-.31,9.58-.65,0,6.35,0,12.7,0,19.05Z"/>
    </g>
  </g>
</svg>