<?xml version="1.0" encoding="UTF-8"?>
<svg xmlns="http://www.w3.org/2000/svg" xmlns:xlink="http://www.w3.org/1999/xlink" viewBox="0 0 357.89 333.78">
  <defs>
    <style>
      .cls-1 {
        mask: url(#mask);
      }

      .cls-2 {
        fill: #dc2400;
        mix-blend-mode: multiply;
      }

      .cls-2, .cls-3, .cls-4 {
        stroke: #231f20;
        stroke-miterlimit: 10;
        stroke-width: 2px;
      }

      .cls-2, .cls-5, .cls-4 {
        isolation: isolate;
      }

      .cls-2, .cls-4 {
        opacity: .1;
      }

      .cls-3 {
        fill: #e2ba87;
      }

      .cls-4 {
        fill: #000;
      }

      .cls-6 {
        fill: #fff;
        stroke-width: 0px;
      }
    </style>
    <mask id="mask" x="-61.87" y="-74.38" width="480" height="480" maskUnits="userSpaceOnUse">
      <g id="viewboxMask">
        <rect class="cls-6" x="-61.87" y="-74.38" width="480" height="480"/>
      </g>
    </mask>
  </defs>
  <g class="cls-5">
    <g id="Layer_2" data-name="Layer 2">
      <g id="Layer_1-2" data-name="Layer 1" shape-rendering="auto">
        <g class="cls-1">
          <g>
            <path class="cls-3" d="M216.58,5.6s112.71,17.6,104.13,177.77c0,.6,13.04,9.31,14.07,10.25,9.52,8.22,16.48,18.98,20.07,31.01,11.92,43.82-30.62,89.01-65.02,100.97-12.91,4.4-26.42,6.79-40.06,7.09-88.43,2.56-205.6-53.56-211.61-163.17-.83-24.54,3.58-48.97,12.95-71.67,0,.09,49.23-121.73,165.46-92.26h0Z"/>
            <path class="cls-2" d="M323.54,185.08c-1.2,2.9-2.12,5.9-2.74,8.97-1.25,9.29,1.39,18.67,7.29,25.97,6.91,8.51,17.32,13.44,28.31,13.41-2.74-27.08-24.87-43.31-32.85-48.35h0ZM164.68,256.24c20.93-4.44,33.97-26.48,29.08-49.12-4.89-22.64-25.9-37.33-46.83-32.89-20.93,4.53-33.88,26.48-28.99,49.21,4.89,22.64,25.82,37.33,46.75,32.89v-.09Z"/>
            <path class="cls-4" d="M267.18,192.94s17.93-17,31.74-1.03l-31.74,1.03Z"/>
            <path class="cls-3" d="M100.52,277.51c-59.53,29.73-113.57-44.85-96.24-86.79,11.06-26.82,43.23-28.87,61.84-4.44,11.29,15.21,19.74,32.31,24.96,50.49"/>
            <path class="cls-4" d="M51.46,210.97c7.72,7.69,13.81,19.22,21.44,25.63-1.46-10.68-3.69-22.21-8.92-31.86-5.32-9.91-15.01-17.94-24.87-17.34-12.18.85-22.22,15.04-23.5,27.85.86-7.69,16.3-12.81,22.22-12.13,9.26,17.43,12.87,51.77,12.87,51.77,7.72-19.39,4.63-34.77.86-43.99l-.09.09Z"/>
          </g>
        </g>
      </g>
    </g>
  </g>
</svg>